<svg xmlns="http://www.w3.org/2000/svg" width="400" height="133.082"><g fill="#fff" fill-rule="evenodd"><path d="M225.784 42.743c.165.225.399.45.52.499.121.05.046-.13-.167-.4-.467-.592-.777-.679-.353-.099m-1.951 9.809c0 .029.244.273.542.542l.542.489-.49-.541c-.456-.505-.594-.619-.594-.49m21.834 19.079c0 .071.15.257.333.414.183.157.333.227.333.157s-.15-.256-.333-.413c-.183-.157-.333-.228-.333-.158m-66.834 7.825c-.596.034-1.154.133-1.241.219-.087.087-.394.158-.681.158-.566 0-2.729.619-2.986.855-.087.08-.293.145-.458.145-.165 0-.3.069-.3.154 0 .084-.225.203-.5.263s-.5.179-.5.263c0 .085-.109.154-.242.154a.497.497 0 00-.375.208c-.073.115-.423.356-.778.537-.354.18-.681.424-.726.541a.35.35 0 01-.3.214c-.296 0-2.746 2.465-2.746 2.763 0 .13-.066.237-.147.237-.206 0-1.416 1.915-1.843 2.916-.195.459-.422.956-.504 1.105-.083.149-.202.561-.266.916-.064.356-.19.738-.28.851-.089.113-.201 1.013-.249 2-.048.987-.167 1.894-.264 2.016-.121.152-.122.256-.003.333.095.062.218.931.273 1.931.055 1.001.168 1.863.25 1.917.082.054.199.42.261.814.061.393.182.843.269 1 .086.156.344.696.573 1.201.561 1.235 1.135 2.221 1.388 2.383.115.073.209.21.209.304 0 .095.225.397.5.672s.5.55.5.612c.002.187 1.061 1.252 1.674 1.683.317.222.636.504.709.625a.494.494 0 00.375.221c.133 0 .242.073.242.163 0 .09.182.209.404.265.223.056.445.207.495.337.05.129.199.235.332.235.132 0 .266.056.296.125.051.113.299.241 1.639.851.837.38 2.558.857 3.091.857.302 0 .573.074.604.164.032.095 1.211.19 2.805.226 3.112.071 3.306.132 4.646 1.454.711.701 1.521 2.015 1.521 2.466 0 .104.065.19.145.19.08 0 .195.308.255.684.185 1.159.913 1.726 2.215 1.73.585.001 1.117-.078 1.182-.176.066-.099.251-.227.411-.287.161-.059.292-.222.292-.362 0-.141.075-.256.167-.256.209 0 .223-2.278.014-2.407-.084-.052-.203-.394-.264-.76-.062-.366-.175-.666-.252-.666-.076 0-.188-.225-.248-.5-.061-.275-.171-.5-.246-.5-.074 0-.18-.181-.236-.402-.093-.371-.414-.825-1.14-1.612-.342-.371-.233-.764.254-.918.194-.062.455-.215.58-.34.126-.125.335-.228.466-.228s.238-.077.238-.172c0-.094.132-.222.292-.284.382-.146 3.208-2.934 3.208-3.164 0-.098.113-.221.25-.274a.408.408 0 00.25-.351c0-.14.074-.255.164-.255.09 0 .21-.187.268-.417.057-.229.165-.416.24-.416.074 0 .185-.225.245-.5s.173-.5.25-.5c.077 0 .19-.225.25-.5s.171-.5.245-.5c.074 0 .187-.282.251-.625.065-.344.185-.708.269-.809.083-.101.199-.551.258-1 .058-.449.18-.91.27-1.025.216-.274.216-5.809 0-6.083-.09-.115-.21-.615-.266-1.112-.056-.497-.178-.981-.273-1.075a.661.661 0 01-.171-.404c0-.229-.25-.867-.798-2.034-.385-.819-1.488-2.489-2.037-3.083-1.364-1.476-2.742-2.75-2.974-2.75-.105 0-.191-.074-.191-.164 0-.09-.182-.209-.404-.265-.223-.056-.445-.207-.495-.336a.397.397 0 00-.345-.235c-.141 0-.256-.069-.256-.154 0-.084-.225-.203-.5-.263s-.5-.179-.5-.263c0-.085-.135-.154-.3-.154-.165 0-.371-.065-.458-.145-.237-.218-2.401-.855-2.903-.855-.241 0-.51-.065-.597-.145-.187-.172-3.194-.319-4.742-.232m-106.788.511c-.338.034-.756.265-1.125.624l-.587.57v30.012l.598.58c.958.93 2.87.755 3.592-.328.183-.276.243-2.307.31-10.508.075-9.15.108-10.117.332-9.667.136.275.342.599.458.72.116.121.21.328.21.459s.058.238.127.238c.129 0 .35.363.737 1.208.115.252.26.458.321.458.062 0 .16.188.217.417.058.229.178.417.268.417.09 0 .164.071.164.157 0 .22 1.192 2.247 1.362 2.315.076.03.138.133.138.228 0 .221 1.189 2.198 1.366 2.272.073.03.134.133.134.228 0 .165 1.128 2.126 1.323 2.3.051.045.281.458.51.916.229.459.473.859.542.889.068.031.125.164.125.297 0 .133.105.282.235.332.129.049.276.253.327.453.162.634 1.092 1.613 1.533 1.613.223 0 .405.075.405.166 0 .092.262.167.583.167.321 0 .583-.075.583-.167 0-.091.176-.166.391-.166.403 0 .943-.461.943-.805 0-.107.057-.195.127-.195.126 0 .223-.151.704-1.097.136-.267.343-.586.458-.707.116-.121.211-.327.211-.458s.057-.238.127-.238c.126 0 .223-.151.704-1.097.136-.267.343-.586.458-.707.116-.121.211-.327.211-.458s.058-.238.13-.238c.071 0 .219-.207.327-.459.212-.492.562-1.073.729-1.208.056-.046.155-.252.219-.458.064-.207.187-.375.273-.375.085 0 .155-.084.155-.187 0-.194 1.145-2.167 1.342-2.313.062-.046.171-.268.241-.493.07-.224.23-.511.356-.636.125-.126.228-.336.228-.467s.075-.238.166-.238c.092 0 .167-.115.167-.255s.108-.297.24-.347c.132-.051.288-.311.346-.578.059-.268.175-.486.257-.486.083 0 .198-.188.255-.417.058-.229.172-.417.253-.417.082 0 .149-.103.149-.229 0-.127.112-.323.25-.437.222-.184.25.899.25 9.579 0 10.745-.019 10.528 1.005 11.257.868.619 2.46.409 3.19-.42.448-.508.466-30.008.019-30.766-.157-.266-.376-.484-.486-.484-.11 0-.226-.077-.258-.172-.271-.813-2.853.094-3.329 1.169-.122.277-.271.503-.33.503-.06 0-.155.188-.213.417-.057.229-.172.417-.255.417-.082 0-.198.218-.257.486-.058.267-.214.527-.346.578a.39.39 0 00-.24.333c0 .133-.056.267-.125.297-.069.031-.312.429-.542.886-.229.457-.491.923-.583 1.036-.092.113-.257.314-.368.447-.111.133-.25.435-.31.672-.059.237-.17.431-.246.431-.075 0-.19.169-.254.375-.064.207-.163.413-.219.459-.137.11-.474.651-.727 1.166-.113.23-.3.516-.416.637-.115.121-.21.328-.21.459s-.059.238-.13.238c-.072 0-.219.206-.327.458-.212.492-.562 1.073-.729 1.208-.056.046-.155.252-.219.459-.065.206-.181.375-.26.375-.078 0-.191.225-.252.5-.06.275-.173.5-.252.5-.078 0-.195.168-.259.375-.064.206-.163.412-.219.458-.137.111-.474.651-.727 1.167a3.15 3.15 0 01-.416.637c-.115.121-.21.327-.21.458s-.069.238-.153.238c-.085 0-.202.219-.261.486-.058.267-.214.528-.346.578a.403.403 0 00-.24.347c0 .141-.057.256-.127.256s-.201.168-.292.374c-.257.584-.697.567-.829-.032-.061-.28-.176-.509-.254-.509-.078 0-.195-.169-.259-.375-.065-.206-.163-.413-.22-.458-.166-.136-.517-.717-.728-1.209-.109-.252-.248-.458-.309-.458-.062 0-.16-.187-.217-.417-.058-.229-.178-.416-.268-.416-.09 0-.164-.084-.164-.187 0-.202-1.152-2.176-1.351-2.315-.067-.047-.174-.291-.237-.542-.063-.251-.176-.456-.252-.456-.075 0-.19-.169-.254-.375-.065-.207-.163-.413-.22-.459-.136-.11-.473-.651-.727-1.166a3.08 3.08 0 00-.415-.637c-.116-.121-.21-.328-.21-.459s-.067-.238-.148-.238c-.081 0-.188-.131-.239-.291-.124-.39-.665-1.278-.822-1.348-.068-.03-.125-.156-.125-.279 0-.124-.094-.324-.21-.445-.116-.121-.322-.439-.458-.707-.482-.945-.579-1.096-.705-1.096-.069 0-.127-.107-.127-.238s-.093-.339-.208-.462c-.115-.122-.394-.578-.622-1.012-.227-.433-.471-.788-.541-.788-.071 0-.129-.094-.13-.209-.001-.318-1.196-2.099-1.49-2.222a4.25 4.25 0 00-1.797-.269m35.247.386c-.252.188-.459.448-.459.578 0 .129-.075.236-.166.236-.11 0-.167 5.109-.167 14.994v14.995l.589.588.589.589h10.744c7.052 0 10.745-.057 10.745-.166 0-.092.085-.167.188-.167 1.372 0 1.045-3.608-.355-3.926a3.373 3.373 0 01-.706-.251c-.17-.092-3.836-.156-8.875-.156h-8.586v-9.5h15.948l.423-.375c1.049-.932 1.114-2.256.161-3.278l-.634-.681h-15.898v-9.166h8.5c5.556 0 8.5-.058 8.5-.167 0-.092.214-.167.474-.167.547 0 1.36-.626 1.36-1.047 0-.157.075-.286.166-.286.612 0-.042-2.104-.827-2.663-.748-.532-21-.518-21.714.016m28.517.317l-.726.677v14.715c0 16.423-.061 15.562 1.146 16.113.599.272 2.148.277 2.238.007.034-.1.167-.182.297-.182.13 0 .236-.07.236-.155 0-.085.131-.286.292-.446.272-.272.295-1.181.339-13.522l.047-13.23 5.636.051c3.86.036 5.709.111 5.869.24.129.103.41.242.626.308.82.252 2.187 1.614 2.443 2.433.069.223.21.458.312.523.278.178.256 5.163-.022 5.256a.329.329 0 00-.209.293c0 .307-1.486 1.916-1.77 1.916-.126 0-.23.069-.23.153 0 .084-.225.203-.5.263-.275.061-.5.174-.5.252 0 .077-.412.193-.916.256-.505.063-.917.169-.917.236 0 .067-1.011.167-2.246.223-2.466.112-3.421.547-3.421 1.56 0 .215-.075.39-.166.39-.092 0-.167.188-.167.417 0 .229.075.416.167.416.091 0 .166.177.166.393 0 .964.729 1.352 2.656 1.415.968.031 1.836.116 1.928.189.091.072.429.187.75.255.32.068.62.17.666.228.126.157 1.141.854 1.244.854.309 0 2.256 2.687 2.256 3.114 0 .12.072.219.159.219.088 0 .209.263.269.583.06.321.168.584.239.584.071 0 .179.337.241.75.062.412.173.75.246.75.074 0 .183.417.243.926.109.933.193 1.1.915 1.813 1.1 1.087 3.306.377 3.594-1.156.118-.626-.04-2.235-.246-2.5-.07-.092-.182-.523-.246-.958-.065-.436-.185-.792-.266-.792-.081 0-.15-.169-.153-.375-.003-.206-.151-.675-.328-1.042-.177-.366-.325-.76-.328-.875-.003-.114-.074-.208-.159-.208-.084 0-.203-.225-.263-.5s-.177-.5-.26-.5c-.083 0-.196-.182-.252-.405-.056-.222-.207-.445-.336-.494-.13-.05-.235-.174-.235-.276 0-.101-.334-.519-.743-.927-.682-.682-.855-1.231-.388-1.231.67 0 3.297-2.807 3.297-3.524 0-.17.069-.31.154-.31.084 0 .206-.243.271-.541.064-.298.19-.589.28-.646.09-.057.203-.751.253-1.541.049-.791.154-1.438.232-1.438.186 0 .188-1.12.002-1.235-.078-.048-.186-.777-.241-1.619-.054-.843-.169-1.577-.254-1.631-.086-.054-.209-.417-.274-.807-.065-.39-.181-.708-.257-.708-.077 0-.189-.225-.249-.5s-.174-.5-.252-.5c-.078 0-.186-.138-.24-.307-.235-.742-2.229-2.484-3.575-3.121a68.03 68.03 0 01-1.233-.598c-.89-.458-2.16-.541-9.141-.593l-7.274-.055-.726.677m129.122-.09c-.329.32-.598.732-.598.917 0 .185-.069.336-.153.336-.084 0-.203.225-.263.5-.061.275-.179.5-.264.5-.084 0-.156.094-.159.209-.003.114-.15.508-.327.875-.177.366-.325.798-.328.958-.003.16-.075.292-.159.292s-.203.225-.263.5c-.061.275-.173.5-.25.5-.077 0-.19.225-.25.5-.061.275-.171.5-.245.5-.074 0-.184.262-.244.583-.061.321-.175.583-.256.583-.08 0-.195.225-.255.5-.061.275-.179.5-.264.5-.084 0-.153.08-.153.178 0 .222-1.476 3.481-2.271 5.015-.126.243-.229.562-.229.708 0 .146-.075.266-.167.266-.091 0-.166.095-.166.211 0 .116-.15.49-.334.833-.183.342-.333.734-.333.872s-.069.251-.153.251c-.085 0-.203.225-.264.5-.06.275-.179.5-.263.5-.084 0-.156.093-.159.208-.003.115-.151.508-.328.875-.177.367-.324.798-.327.958-.003.161-.075.292-.159.292-.085 0-.203.225-.264.5-.06.275-.179.5-.263.5-.084 0-.156.094-.159.208-.003.115-.151.509-.328.875-.177.367-.324.761-.327.875-.003.115-.075.209-.159.209-.085 0-.203.225-.264.5-.06.275-.179.5-.263.5-.084 0-.154.093-.154.208-.001.115-.106.41-.235.655a4.696 4.696 0 00-.345.959c-.062.281-.173.511-.248.511-.074 0-.187.205-.25.457-.063.251-.202.511-.31.577-.466.288-.353 2.912.146 3.375.475.44 2.243.643 2.243.258 0-.092.104-.167.231-.167.208 0 .561-.3 2.37-2.01.285-.27.576-.49.648-.49.071 0 .295-.179.497-.397.203-.219.523-.446.712-.507.189-.06.386-.218.438-.352a.405.405 0 01.348-.244c.141 0 .256-.074.256-.163 0-.09.187-.211.416-.269.23-.057.417-.16.417-.229 0-.149 2.337-1.339 2.629-1.339.113 0 .204-.067.204-.148 0-.082.263-.197.584-.258.32-.06.583-.171.583-.247 0-.075.392-.189.871-.253.479-.063.968-.196 1.086-.294.712-.591 7.655-.325 7.812.298.055.221.167.402.249.402.082 0 .151.094.154.208.003.115.151.509.328.875.177.367.325.761.328.875.003.115.08.209.172.209.092 0 .167.093.168.208 0 .115.106.41.234.655.128.246.284.678.346.959.061.281.173.511.247.511.075 0 .187.205.25.457.063.251.165.495.227.541.061.047.193.233.293.413.681 1.232 2.883 1.215 3.734-.028.416-.606.44-2.709.033-2.845-.109-.036-.199-.139-.199-.228 0-.146-.255-.766-.928-2.252-.131-.289-.238-.607-.238-.708 0-.101-.075-.183-.167-.183-.092 0-.169-.094-.172-.209-.003-.114-.151-.508-.328-.875-.177-.366-.325-.76-.328-.875-.003-.114-.08-.208-.172-.208-.092 0-.167-.082-.167-.183 0-.183-.247-.79-.848-2.085-.175-.377-.318-.771-.318-.875 0-.105-.075-.19-.167-.19-.092 0-.169-.094-.172-.209-.003-.114-.151-.508-.328-.875-.177-.366-.325-.76-.328-.875-.003-.114-.072-.208-.154-.208s-.199-.201-.261-.446c-.061-.246-.332-.918-.601-1.493-.269-.576-.489-1.125-.489-1.221a.17.17 0 00-.167-.173c-.092 0-.167-.113-.167-.25 0-.278-.988-2.453-1.173-2.584-.065-.046-.171-.327-.236-.625-.064-.298-.18-.541-.257-.541-.077 0-.19-.225-.25-.5-.061-.275-.179-.5-.264-.5-.084 0-.156-.132-.159-.292-.003-.16-.15-.592-.327-.958-.177-.367-.325-.761-.328-.875-.003-.115-.081-.209-.172-.209-.092 0-.17-.093-.173-.208-.003-.115-.15-.508-.327-.875-.177-.367-.325-.76-.328-.875-.003-.115-.075-.208-.159-.208s-.203-.225-.263-.5c-.061-.275-.173-.5-.249-.5-.076 0-.189-.3-.251-.667-.062-.367-.175-.667-.252-.667-.076 0-.188-.225-.248-.5-.061-.275-.179-.5-.264-.5-.084 0-.153-.105-.153-.235 0-1.139-2.549-1.508-3.569-.518m21.78-.195c-.297.201-.541.452-.542.559-.001.107-.096.226-.211.264-.164.055-.217 3.179-.251 14.723-.047 16.063-.077 15.547.918 15.984.206.09.375.221.375.291 0 .444 1.998.107 2.571-.434l.596-.561v-11.189c0-6.154.041-11.189.091-11.189.129 0 1.24 1.225 1.241 1.367.001.065.263.372.584.684.321.311.584.625.584.697 0 .072.169.289.375.483.207.194.545.578.752.853a30.766 30.766 0 001.721 2.069c.237.259.61.724.827 1.034.218.31.586.767.819 1.016.232.25.498.55.59.667.7.893 1.869 2.237 2.041 2.347.114.073.208.213.208.311s.3.469.667.825c.366.356.666.718.666.806 0 .087.263.414.584.725.32.312.583.624.583.694 0 .071.3.419.667.775.366.356.666.718.666.806 0 .087.263.414.584.725.32.312.583.618.583.681 0 .063.3.427.667.809.366.381.666.75.666.819 0 .068.263.38.584.691.32.312.583.618.583.681 0 .063.3.427.667.809.366.381.666.742.666.801 0 1.34 3.33 1.773 4.254.553.282-.372.372-30.394.091-30.394-.086 0-.198-.134-.25-.298-.35-1.104-3.595-1.076-3.595.031 0 .132-.093.27-.208.308-.163.055-.218 2.473-.255 11.181-.042 10.128-.112 11.852-.443 10.81-.052-.165-.395-.612-.761-.993s-.666-.745-.666-.808c0-.063-.263-.369-.583-.681-.321-.311-.584-.623-.584-.691 0-.069-.3-.438-.666-.819-.367-.382-.667-.755-.667-.83 0-.075-.208-.322-.463-.548a6.928 6.928 0 01-.873-.996 8.338 8.338 0 00-.745-.916c-.186-.184-.804-.907-1.376-1.609-1.539-1.888-1.744-2.13-2.317-2.733-.288-.302-.55-.622-.583-.71-.073-.195-1.198-1.538-1.935-2.309-.298-.312-.541-.634-.541-.715 0-.081-.338-.486-.75-.898-.413-.413-.75-.805-.75-.871 0-.067-.263-.377-.584-.688-.321-.312-.583-.623-.583-.692 0-.069-.3-.437-.667-.819-.366-.381-.666-.745-.666-.808 0-.063-.263-.37-.584-.681-.321-.312-.583-.619-.584-.684-.001-.181-1.059-1.259-1.465-1.492-.566-.325-1.71-.237-2.323.177m31.611.125c-1.227 1.096-.607 3.823.869 3.823.262 0 .476.075.476.167 0 .107 1.611.167 4.5.167h4.5v13.25c0 8.084.06 13.25.155 13.25.086 0 .203.149.261.333.058.183.288.378.511.434.223.056.406.169.406.251 0 .081.375.148.833.148.459 0 .834-.067.834-.148 0-.082.182-.195.405-.251.223-.056.453-.251.511-.434.059-.184.176-.333.262-.333.094 0 .155-5.166.155-13.25v-13.25h4.407c2.758 0 4.445-.063 4.51-.167.056-.092.309-.167.562-.167 1.724 0 2.025-3.356.37-4.137-.306-.144-3.506-.196-12.186-.196h-11.77l-.571.51m-137.254 3.465c.048.078.664.191 1.368.25.704.06 1.362.177 1.464.26.101.084.465.204.808.269.344.064.625.177.625.251 0 .074.225.185.5.245s.5.179.5.263c0 .085.094.154.209.154.51 0 2.606 1.821 3.875 3.367.419.511 1.583 2.831 1.583 3.156 0 .134.069.315.153.402.668.693.616 5.697-.075 7.183-.135.289-.245.641-.245.782 0 .141-.069.299-.154.352-.084.052-.201.313-.26.579-.058.266-.214.526-.346.576a.403.403 0 00-.24.347c0 .141-.07.256-.155.256-.086 0-.203.148-.26.33-.087.273-1.019 1.411-1.534 1.873-.074.065-.38.347-.681.625-.301.278-.615.505-.697.505-.082 0-.251.094-.376.208-.551.505-1.945 1.225-2.679 1.385-.294.063-.577.182-.629.264-.053.082-.711.196-1.464.254-.753.058-1.409.17-1.457.247-.113.184-.855.184-.969 0-.048-.078-.64-.188-1.315-.245-.676-.057-1.447-.218-1.714-.358-.268-.139-.655-.253-.861-.254-.207-.001-.375-.07-.375-.154 0-.085-.225-.203-.5-.264-.275-.06-.5-.179-.5-.263 0-.084-.078-.153-.174-.153-.197 0-1.214-.686-1.299-.875-.03-.069-.135-.125-.233-.125-.169 0-1.659-1.489-2.378-2.375-.183-.226-.52-.778-.75-1.227-.229-.448-.47-.839-.536-.869-.066-.029-.168-.311-.227-.625s-.167-.571-.24-.571c-.072 0-.185-.394-.25-.875-.064-.481-.189-.963-.276-1.071-.399-.495.062-5.107.618-6.172.133-.256.243-.597.244-.757 0-.16.076-.292.167-.292a.17.17 0 00.167-.173c0-.197.685-1.215.875-1.299.069-.03.126-.143.126-.25.002-.243 2.478-2.677 2.874-2.825.16-.06.292-.18.292-.268 0-.087.225-.208.5-.268.275-.06.5-.173.5-.25 0-.077.225-.19.5-.25s.5-.171.5-.245c0-.074.281-.187.625-.251.343-.065.714-.191.823-.281.109-.09.768-.207 1.464-.26.696-.052 1.304-.159 1.353-.237.114-.185 1.022-.185 1.136-.001m85.829 4.83c.083.29.209.528.281.528.071 0 .178.225.239.5.06.275.179.5.263.5.084 0 .156.132.159.292.003.16.151.592.328.958.177.367.324.761.327.875.003.115.075.209.159.209.085 0 .203.225.264.5.06.275.17.5.244.5.075 0 .184.262.245.583.06.321.175.583.255.583.08 0 .195.225.256.5.06.275.179.5.263.5.084 0 .156.132.159.292.003.16.151.592.328.958.177.367.324.761.327.875.003.115.081.209.173.209.091 0 .169.093.172.208.003.115.151.508.328.875.177.367.324.723.327.792.003.068-.931.125-2.077.125s-2.084.064-2.084.142c0 .079-.616.194-1.369.257s-1.41.176-1.458.251c-.049.075-.446.189-.881.253-.435.065-.792.179-.792.255 0 .075-.337.188-.75.25-.412.061-.75.182-.75.269 0 .086-.093.156-.208.157-.115.001-.41.106-.655.234-1.054.55-1.927.369-1.135-.235.185-.141 1.665-3.392 1.665-3.658 0-.096.075-.175.167-.175a.172.172 0 00.166-.175c0-.096.263-.735.584-1.42.32-.685.583-1.357.583-1.492 0-.136.069-.247.153-.247.085 0 .203-.225.264-.5.06-.275.173-.5.25-.5.077 0 .189-.225.25-.5.06-.275.179-.5.263-.5.084 0 .156-.093.159-.208.003-.115.151-.508.328-.875.177-.367.324-.76.327-.875.003-.115.075-.208.159-.208.085 0 .203-.225.264-.5.06-.275.179-.5.263-.5.084 0 .153-.083.153-.183 0-1.005.82-1.528 1.064-.679"/><path d="M180.292 16.109c-.252.044-.459.15-.459.235 0 .086-.144.156-.321.156a.94.94 0 00-.572.25c-.137.137-.349.25-.47.251-.121.001-.445.15-.72.332-.275.182-.631.332-.792.333-.16 0-.291.076-.291.167 0 .092-.069.167-.152.167-.084 0-.712.262-1.398.583-.685.321-1.329.584-1.431.584-.102 0-.186.069-.186.153 0 .084-.225.203-.5.263-.275.061-.5.171-.5.246 0 .074-.206.185-.458.247s-1.3.52-2.329 1.018c-1.028.498-1.947.906-2.041.906-.095 0-.172.069-.172.153 0 .085-.225.203-.5.264-.275.06-.5.179-.5.263 0 .084-.094.156-.208.159-.115.003-.509.151-.875.328-.367.177-.798.324-.959.327-.16.003-.291.075-.291.159 0 .085-.225.203-.5.264-.275.06-.5.17-.5.245 0 .074-.207.183-.459.242-.556.13-1.603.632-1.68.804-.031.069-.162.125-.292.125-.131 0-.517.15-.859.334-.342.183-.717.333-.833.333-.116 0-.211.067-.211.148 0 .082-.262.197-.583.258-.321.06-.583.175-.583.255 0 .08-.225.195-.5.256-.275.06-.5.163-.5.227 0 .065-.525.3-1.167.523-.642.222-1.167.457-1.167.522s-.225.167-.5.228c-.275.06-.5.179-.5.263 0 .084-.079.153-.175.153-.16 0-.759.246-2.267.929-.288.131-.601.238-.694.238-.093 0-.194.056-.225.125-.03.069-.318.246-.639.393-.321.147-.929.429-1.351.625-.423.196-.854.357-.959.357-.104 0-.19.072-.19.159 0 .088-.262.208-.582.268-.32.06-.546.167-.502.238.067.109-.703.348-1.023.317-.058-.006-.151.052-.207.129-.181.246-3.667 1.889-4.01 1.889a.172.172 0 00-.176.167c0 .091-.144.166-.321.166a.946.946 0 00-.572.25c-.137.138-.346.25-.463.25-.118 0-.892.326-1.721.725-3.185 1.532-3.719 1.775-3.901 1.775-.104 0-.188.069-.188.154 0 .084-.225.203-.5.263s-.5.179-.5.263c0 .085-.094.156-.209.159-.114.003-.508.151-.875.328-.366.177-.76.325-.875.328-.114.003-.208.074-.208.159 0 .084-.225.203-.5.263s-.5.173-.5.25c0 .142-.966.427-1.221.361-.075-.02-.09.041-.032.135.059.094-.011.171-.154.171-.144 0-.541.15-.883.333-.342.183-.717.333-.833.333-.115 0-.21.069-.21.154 0 .084-.225.203-.5.263s-.5.175-.5.256c0 .08-.263.195-.584.255-.32.06-.583.168-.583.239 0 .136-.815.411-1.054.357-.076-.018-.09.045-.032.139.058.094.007.173-.112.176-.12.003-.519.151-.885.328-.367.177-.761.325-.875.328-.115.003-.209.08-.209.172 0 .092-.081.167-.179.167-.099 0-.726.262-1.393.583-.667.321-1.299.583-1.403.583-.105 0-.191.069-.191.154 0 .084-.225.203-.5.263s-.5.173-.5.25c0 .077-.225.19-.5.25s-.5.179-.5.263c0 .085-.083.154-.183.154-.101 0-.42.104-.709.232-.605.267-.963.389-1.173.399a.387.387 0 00-.25.146c-.134.184-1.585.889-1.829.889-.104 0-.19.069-.19.154 0 .084-.225.203-.5.263s-.5.173-.5.25c0 .077-.225.19-.5.25s-.5.179-.5.263c0 .085-.06.135-.133.112-.144-.045-1.895.721-2.033.889-.046.056-.29.152-.542.214-.252.061-.458.185-.458.275 0 .09-.107.164-.237.164-.248 0-1.286.503-1.432.695-.046.061-.29.163-.541.226-.252.063-.457.176-.457.25 0 .075-.225.185-.5.245-.275.061-.5.179-.5.264 0 .084-.094.156-.208.159-.115.003-.509.15-.875.327-.367.177-.761.325-.875.328-.115.003-.209.081-.209.172 0 .092-.093.17-.208.173-.115.003-.508.15-.875.327-.367.177-.76.325-.875.328-.115.003-.208.081-.208.172 0 .092-.094.17-.209.173-.114.003-.508.15-.875.327-.366.177-.76.325-.875.328-.114.003-.208.073-.208.154 0 .082-.201.199-.446.261-.246.061-.918.332-1.493.601-.576.269-1.163.49-1.304.49-.141 0-.257.069-.257.153 0 .084-.241.207-.536.271-.295.065-.651.181-.792.258-.61.333-1.842.818-2.08.818-.142 0-.259.068-.259.152 0 .083-.3.202-.666.264-.367.062-.667.18-.667.263 0 .083-.3.198-.667.257-.366.058-.666.172-.666.252 0 .08-.13.145-.289.145-.272 0-1.79.535-2.412.85-.157.079-.588.192-.959.252-.37.059-.674.173-.674.253 0 .08-.1.145-.222.145-.248 0-2.346.613-2.861.837-.183.079-.652.192-1.041.251-.389.059-.745.169-.792.244-.08.13-1.695.431-1.959.366-.068-.017-.125.036-.125.119 0 .083-.465.204-1.035.27-.569.066-1.15.185-1.291.264-.253.141-1.474.326-4.424.669-1.666.194-6.255.074-6.404-.167-.053-.084-.452-.207-.887-.272-.436-.065-.792-.179-.792-.253 0-.074-.225-.184-.5-.245-.275-.06-.5-.173-.5-.252 0-.078-.164-.194-.365-.258-1.191-.378-2.551-2.597-2.669-4.353-.019-.292-.095-.494-.167-.449-.073.045-.132-.368-.132-.918s.066-1.041.147-1.091c.081-.05.199-.579.263-1.176S55.756 54 55.832 54c.076 0 .189-.3.251-.667.062-.366.175-.666.252-.666.076 0 .188-.225.248-.5.061-.275.174-.5.252-.5.079 0 .19-.151.249-.334.058-.184.476-.715.93-1.181l.824-.846 1.789-.078c.984-.042 1.94-.143 2.123-.225.183-.081.688-.194 1.121-.251.433-.058.826-.167.873-.243.047-.076.349-.187.671-.248.322-.06.585-.173.585-.25 0-.078.189-.189.42-.247.688-.173 2.58-1.914 2.58-2.375 0-.122.057-.222.128-.222.247 0 .735-1.725.826-2.92.096-1.27-.016-2.08-.289-2.08-.251 0-.832-.55-.832-.787 0-.118-.073-.213-.163-.213-.09 0-.211-.188-.268-.417-.058-.229-.167-.417-.243-.417-.076 0-.19-.341-.252-.759-.098-.651-.165-.751-.469-.708-.42.06-.636 2.778-.258 3.234.164.197-.053.233-1.41.233-.882 0-1.603.065-1.603.143 0 .079-.465.192-1.033.251-.567.059-1.074.171-1.125.248-.051.077-.317.195-.591.263-.274.067-.536.172-.583.234-.047.061-.376.26-.731.441-1.248.636-2.919 2.503-3.668 4.099-.277.59-.32 1.655-.067 1.655.398 0-.019.638-1.22 1.867-1.3 1.33-2.649 3.09-2.649 3.457a.172.172 0 01-.167.176c-.091 0-.166.082-.166.183 0 .101-.104.419-.23.708-.808 1.848-.854 2.114-.854 4.99 0 1.89.061 2.836.188 2.916.103.066.24.363.305.661.064.298.18.542.257.542.077 0 .19.225.25.5.061.275.174.5.252.5.079 0 .19.15.248.333.122.383 1.695 2.008 2.671 2.76 1.25.962 5.298 2.74 6.237 2.74.177 0 .366.07.418.155.053.085.526.201 1.052.258.526.057 1.078.169 1.227.25.148.081 1.011.2 1.916.264s1.721.173 1.813.243c.551.42 18.199.251 18.335-.175.059-.187.27-.513.469-.725.199-.212.526-.604.726-.87.508-.676 1.989-2.176 3.028-3.067a68.64 68.64 0 001.372-1.208c.274-.252.559-.458.633-.458.119 0 .373-.186 1.138-.831.111-.093.274-.169.363-.169.089 0 .264-.094.389-.209.339-.31.824-.613 1.338-.834.252-.108.459-.25.459-.314s.225-.166.5-.227c.275-.06.5-.173.5-.25 0-.077.225-.189.5-.25.275-.06.5-.173.5-.25 0-.077.225-.189.5-.25.275-.06.5-.172.5-.248 0-.077.3-.19.666-.252.367-.062.667-.172.667-.246 0-.073.263-.182.583-.243.321-.06.584-.181.584-.268 0-.088.168-.16.375-.16.206-.001.584-.111.84-.244a4.465 4.465 0 011.042-.351c.317-.059.576-.168.576-.242 0-.073.3-.184.667-.246.366-.062.666-.172.666-.246 0-.073.26-.182.577-.241.317-.06.785-.218 1.041-.351.256-.134.597-.243.757-.244.161-.001.292-.076.292-.168 0-.091.154-.166.342-.166.189 0 .658-.142 1.042-.315a21.409 21.409 0 011.616-.625c.504-.171.954-.356 1-.411.046-.056.365-.153.708-.216.344-.063.625-.187.625-.274 0-.088.132-.16.292-.16.16-.001.493-.106.739-.235.246-.128.677-.283.958-.345.281-.062.511-.182.511-.266 0-.084.1-.153.221-.153.223 0 2.473-.94 3.373-1.41.269-.14.583-.255.698-.256.115-.001.208-.076.208-.168 0-.091.107-.166.238-.166s.356-.118.5-.262c.251-.25.352-.141.282.303-.011.069.058.125.153.125.113 0 .118.102.016.292-.086.16-.209.648-.274 1.083-.066.436-.178.792-.249.792-.071 0-.178.206-.237.458-.13.557-.602 1.539-.887 1.843-.115.123-.208.33-.208.461s-.075.238-.167.238c-.092 0-.167.082-.167.182 0 .1-.131.354-.291.564-.161.21-.404.548-.542.75a9.971 9.971 0 01-.542.712c-.16.189-.291.411-.291.494 0 .083-.075.105-.167.048-.092-.057-.167.003-.167.134 0 .13-.243.503-.541.829-1.074 1.174-1.402 1.787-.957 1.787.196 0 3.221-2.022 3.304-2.208.03-.069.164-.125.297-.125a.386.386 0 00.331-.235c.05-.13.273-.281.495-.337.223-.056.405-.175.405-.265 0-.09.115-.163.255-.163s.298-.113.351-.25c.053-.138.189-.25.303-.25.181 0 .363-.125 1.187-.81.099-.082.342-.201.541-.265.2-.063.363-.184.363-.27 0-.085.115-.155.255-.155s.296-.106.345-.235c.05-.13.273-.281.495-.337.223-.056.405-.175.405-.265 0-.09.115-.163.255-.163s.298-.113.351-.25c.053-.138.195-.25.316-.25s.323-.103.449-.228c.125-.126.393-.281.595-.345.202-.064.367-.186.367-.272 0-.085.068-.155.151-.155.083 0 .702-.365 1.375-.81 2.456-1.626 2.827-1.857 2.982-1.857.087 0 .159-.07.159-.155 0-.086.131-.198.291-.249.161-.052.51-.282.776-.512.267-.229.579-.417.695-.417.115 0 .235-.057.265-.125.085-.19 1.102-.875 1.299-.875.096 0 .174-.067.174-.149 0-.082.187-.196.416-.253.23-.058.417-.178.417-.268 0-.09.115-.164.255-.164a.408.408 0 00.351-.25c.053-.137.184-.25.291-.25.166 0 1.02-.502 2.202-1.296.175-.117.449-.257.609-.311.161-.054.292-.164.292-.245 0-.081.101-.148.224-.148.124 0 .381-.135.571-.3.191-.165.633-.446.984-.625s.675-.367.721-.419c.046-.052.946-.61 2-1.239 1.054-.629 1.955-1.199 2.002-1.267.046-.068.29-.175.541-.238.252-.063.457-.176.457-.252 0-.075.169-.19.375-.254.206-.065.412-.163.458-.22.136-.166.717-.517 1.209-.728.252-.109.458-.256.458-.328 0-.071.107-.13.238-.13s.337-.098.458-.217c.225-.222.601-.401.869-.414.081-.004.194-.077.25-.163.056-.086.552-.402 1.102-.702.55-.301 1.112-.643 1.25-.762.137-.119.456-.267.708-.33.252-.063.458-.181.458-.263 0-.082.107-.149.238-.149s.338-.094.459-.209c.121-.115.538-.359.926-.542.389-.183.708-.382.709-.444.001-.061.227-.161.502-.221.275-.061.5-.174.5-.252 0-.079.168-.195.375-.26.206-.064.412-.163.458-.219.046-.057.458-.29.917-.519.458-.229.871-.467.918-.529.047-.061.291-.163.542-.226.251-.063.456-.176.456-.25 0-.075.225-.185.5-.245.275-.061.5-.179.5-.264 0-.084.083-.153.183-.153.183 0 .791-.247 2.086-.849.376-.175.77-.318.875-.318.104 0 .19-.071.19-.159 0-.087.262-.208.583-.268.321-.061.583-.173.583-.25 0-.078.263-.19.584-.25.32-.061.583-.168.583-.239 0-.072.262-.179.583-.239.321-.061.584-.181.584-.269 0-.087.168-.159.375-.16.206-.001.576-.106.822-.234a4.717 4.717 0 011-.352c.304-.065.628-.177.719-.25.092-.072.542-.187 1-.254.459-.067.874-.185.924-.261.463-.712 17.852-.698 18.743.015.092.073.56.186 1.042.251.481.064.875.179.875.255 0 .076.223.187.495.247.273.059.778.246 1.124.414.346.168.685.271.755.228.069-.043.126-.007.126.079 0 .137.267.26.714.331.072.011.246.135.387.276.141.141.363.256.494.256s.238.074.238.163c0 .09.188.211.417.269.229.057.416.166.416.242 0 .075.163.189.363.252.199.063.465.199.591.303 1.214.995 1.366 1.508.505 1.695-.298.065-.579.176-.625.246-.046.071-1.809.184-3.917.251-3.944.127-3.995.13-4.417.29-.137.053-1.037.144-2 .202-.962.059-1.821.177-1.908.263-.087.087-.322.157-.523.157-.604 0-2.069.536-2.069.758 0 .407.377.474 3.709.658 1.168.065 2.125.176 2.125.246 0 .071.598.181 1.33.245.732.064 1.368.177 1.414.252.047.074.572.188 1.168.251.596.064 1.124.18 1.172.258.048.078.5.194 1.004.257s.954.176 1.001.252c.047.076.421.188.831.249.411.062.746.17.746.241 0 .071.336.179.746.241.411.061.785.174.832.25.047.076.358.189.691.252.333.062.728.18.877.263.44.242 1.707.768 2.646 1.098.481.169.875.359.875.422s.225.164.5.224.5.173.5.25c0 .077.225.19.5.25s.5.173.5.25c0 .077.225.19.5.25s.5.17.5.244c0 .117.482.309.777.31.056.001.148.067.204.149.056.081.402.328.769.547.367.219.704.441.75.491.046.051.421.274.833.497.413.222.788.448.834.502.046.054.514.391 1.041.748.527.358.959.708.959.778 0 .071.131.171.291.224.161.053.546.321.856.595.311.274.63.498.709.498.204 0 5.977 5.784 5.977 5.988 0 .092.206.384.458.649.252.264.571.651.709.859a5.3 5.3 0 00.426.566c.096.104.225.32.286.48.061.16.188.292.282.292.095 0 .172.083.172.184 0 .101.225.468.5.816.275.347.5.67.5.717 0 .048.265.487.588.976.324.49.713 1.171.866 1.515.152.344.332.625.398.625.067 0 .171.225.232.5.06.275.173.5.25.5.077 0 .189.225.25.5.06.275.173.5.25.5.077 0 .189.225.25.5.06.275.179.5.263.5.084 0 .156.131.159.292.003.16.115.437.25.615.134.178.244.463.244.635 0 .171.069.269.152.217.084-.052.203.207.265.574s.181.667.265.667c.083 0 .152.131.153.292 0 .16.11.501.243.757.134.256.292.725.352 1.043.059.318.175.619.256.67.081.05.148.337.148.637v.545l2.724-.014c1.802-.009 2.803.051 2.958.176.129.104.478.241.776.305.298.063.542.176.542.251 0 .074.194.184.431.243.237.06.542.199.678.31.665.541 2.474 2.319 2.474 2.431 0 .07.124.252.276.404.152.152.376.503.499.78s.274.503.336.503.162.225.222.5c.061.275.17.5.244.5.181 0 .329.821.166.921-.117.072-2.125-.86-2.326-1.08-.046-.05-.459-.278-.917-.507-.458-.229-.908-.5-1-.601-.556-.615-2.275-.896-2.882-.472-.433.304-4.158.364-4.695.076-.171-.091-.954-.215-1.741-.276l-1.432-.11v.547c0 .558.492 1.169.942 1.169.124 0 .225.075.225.167 0 .091.111.166.247.166.425 0 1.419 1.099 1.419 1.57 0 .237.075.43.167.43.098 0 .167.584.167 1.417 0 .779-.065 1.417-.144 1.417-.079 0-.184.452-.235 1.006-.05.553-.169 1.101-.265 1.216-.096.116-.225.525-.287.908-.061.383-.168.662-.238.618-.07-.043-.178.258-.24.67-.061.412-.182.748-.268.748-.086 0-.157.083-.157.183 0 .101-.104.42-.232.709-.364.825-.489 1.182-.461 1.317.015.068-.032.125-.103.125s-.277.336-.458.748-.379.749-.441.75c-.061.001-.161.227-.221.502-.061.275-.179.5-.264.5-.084 0-.153.107-.153.238s-.094.338-.208.461c-.115.123-.395.578-.622 1.012-.227.434-.471.789-.542.789-.07 0-.128.099-.128.22 0 .337-1.466 2.366-2.442 3.379-.288.3-.496.574-.461.609.035.035-.236.396-.602.802-.731.812-.694.764-1.424 1.827-.918 1.335-1.738 2.783-1.738 3.069 0 .154-.066.239-.148.189-.081-.051-.198.245-.26.656-.062.412-.182.749-.269.749-.086 0-.156.222-.156.493v.493l-3.25.049c-2.846.042-3.25.016-3.25-.21a.778.778 0 00-.208-.467c-.261-.26-.299-5.305-.042-5.489.092-.066.311-.402.487-.748.324-.638 1.161-1.288 1.658-1.288.149 0 .272-.075.272-.167 0-.091.187-.166.416-.166.352 0 .417-.078.417-.5 0-.275-.067-.5-.148-.5-.082 0-.197-.263-.258-.584-.103-.552-.145-.583-.78-.583-.622 0-1.147-.283-1.147-.618 0-.077-.209-.327-.464-.553-.256-.227-.637-.694-.847-1.037-.211-.344-.452-.625-.536-.625-.084 0-.153-.101-.153-.225 0-.198-.153-.423-.831-1.227-.093-.11-.169-.274-.169-.363 0-.089-.094-.264-.209-.389-.31-.339-.613-.824-.834-1.338-.108-.252-.25-.458-.314-.458s-.166-.225-.227-.5c-.06-.275-.173-.5-.25-.5-.077 0-.189-.225-.25-.5-.06-.275-.163-.5-.227-.5-.065 0-.3-.544-.523-1.209-.222-.664-.454-1.283-.514-1.375-.06-.091-.161-.457-.225-.812-.064-.355-.185-.767-.269-.917-.378-.671-.787-5.367-.516-5.923.093-.191.218-.854.277-1.473.059-.618.167-1.125.239-1.125.073 0 .181-.303.24-.674.059-.37.179-.802.265-.958.087-.156.351-.697.588-1.201.522-1.114.817-1.635 1.063-1.881a.788.788 0 00.186-.486c0-.485-.541-.35-1.214.303-.341.331-.62.552-.62.492 0-.061-.525.421-1.166 1.072-.642.651-1.167 1.223-1.167 1.271 0 .048-.225.313-.5.588-.275.275-.5.565-.5.645 0 .08-.173.333-.385.561-.212.229-.531.702-.709 1.05-.177.349-.379.66-.448.691-.068.03-.127.143-.13.25-.003.106-.151.494-.328.861-.177.366-.325.835-.328 1.041-.005.333-.09.375-.755.375-.413 0-.75-.075-.75-.166 0-.092-.105-.167-.232-.167s-.651-.413-1.164-.918c-.868-.854-2.408-1.749-3.01-1.749-.144 0-.261-.068-.261-.151 0-.083-.375-.202-.833-.265-.458-.063-.872-.178-.919-.254-.048-.077-.499-.191-1.003-.254-.504-.063-.953-.175-.999-.249-.046-.073-.571-.186-1.167-.25-.596-.064-1.12-.174-1.164-.246-.044-.071-.699-.183-1.456-.249-.756-.066-1.451-.167-1.542-.226-.092-.058-1.067-.201-2.167-.317-6.095-.644-11.611-.721-11.718-.164-.045.233.061.292.529.292.322 0 .627.066.677.147.05.081.503.199 1.007.262.504.063.953.174.999.247.045.074.455.183.912.244.457.06.871.175.921.256.049.08.465.198.923.261s.833.178.833.255c0 .078.338.192.75.253.413.062.75.171.75.242 0 .071.338.179.75.241.413.062.75.178.75.259 0 .08.338.197.75.258.413.062.75.176.75.253 0 .077.263.189.584.25.32.06.583.176.583.257 0 .082.131.151.292.154.16.003.591.151.958.328.367.177.76.324.875.327.115.003.208.075.208.159 0 .085.225.203.5.264.275.06.5.173.5.25 0 .077.225.189.5.25.275.06.5.173.5.25 0 .077.225.189.5.25.275.06.5.179.5.263 0 .084.113.153.25.153.138 0 .25.074.25.164 0 .09.188.21.417.268.229.057.417.171.417.253 0 .082.08.149.178.149.185 0 1.466.839 1.851 1.213.121.118.473.392.781.609 1.475 1.037 4.19 4.286 4.19 5.014 0 .099.826.164 2.083.164 1.972 0 2.083.017 2.083.333 0 .183.075.333.167.333.092 0 .167.169.168.375 0 .207.113.59.25.853.137.262.249.619.249.791 0 .173.066.315.148.315.081 0 .199.271.261.604.062.332.181.725.263.875.284.515.828 1.836.828 2.012 0 .096.075.175.166.175.092 0 .167.14.167.311 0 .171.15.502.333.735.184.233.334.479.334.547 0 .068.45.569 1 1.114.55.545 1 1.09 1 1.211 0 .122.079.248.176.28.114.038.085.235-.082.556-.142.273-.259.587-.26.698-.001.111-.306.284-.68.385l-.678.183.084 1.365c.171 2.749.454 5.354.591 5.442.078.05.195.484.261.965.065.481.187.917.27.968.083.051.154.22.157.375.003.155.15.582.327.949.177.366.325.76.328.875.003.114.063.208.133.208s.201.169.291.375l.165.375 6.527.044 6.528.043.117-1.293c.065-.712.174-1.369.243-1.461.069-.091.175-.444.236-.784s.221-.828.354-1.084c.134-.256.243-.596.244-.757.001-.16.06-.291.131-.291.072 0 .219-.207.327-.459.222-.514.524-.999.835-1.338.114-.125.208-.334.208-.465s.068-.238.15-.238c.083 0 .289-.215.459-.478.53-.821 1.25-1.645 3.058-3.495.962-.985 2.05-2.154 2.416-2.597.367-.443.742-.89.835-.993.092-.103.467-.637.833-1.187.366-.55.716-1.039.777-1.085.062-.047.164-.291.227-.542.063-.251.175-.457.25-.457.074 0 .186-.233.249-.518.276-1.255 1.129-1.501 1.864-.539.819 1.074 1.935 2.057 2.333 2.057.118 0 .216.075.216.167 0 .092.112.167.25.167.137 0 .25.075.25.166 0 .092.085.167.19.167.243 0 1.694.705 1.828.889.056.077.15.135.208.129.304-.029 1.107.209 1.107.329 0 .076.262.187.583.247.321.061.584.167.584.237 0 .069.3.174.666.233.367.059.667.181.667.271 0 .222.785.211.924-.013.06-.098-.235-.697-.657-1.331-.422-.635-.767-1.23-.767-1.322 0-.093-.059-.169-.131-.169-.072 0-.272-.244-.446-.542-.173-.298-.359-.579-.414-.625-.054-.046-.191-.27-.303-.5-.25-.511-.588-1.055-.725-1.166-.057-.046-.155-.252-.22-.459-.064-.206-.17-.375-.234-.375-.065 0-.303-.356-.53-.791-.228-.436-.46-.83-.516-.875-.057-.046-.155-.252-.22-.459-.064-.206-.179-.375-.254-.375-.076 0-.189-.205-.252-.456s-.165-.495-.227-.542c-.165-.125-.861-1.59-.861-1.812 0-.104-.071-.19-.157-.19-.086 0-.208-.356-.271-.791-.063-.436-.18-.875-.26-.976-.091-.115.01-.352.271-.633.229-.248.417-.58.417-.738 0-.324.555-.862.891-.862.208 0 1.457 1.26 1.356 1.367-.026.028.058.147.186.265.128.118.233.176.233.128 0-.048.357.255.792.673a20.72 20.72 0 001.259 1.122c.257.199.632.502.834.673.201.171.553.433.782.582.461.3.569.381 1.151.86.22.182.501.33.625.33.123 0 .224.058.224.127 0 .145.103.203 2.018 1.141 2.126 1.041 2.586 1.232 2.956 1.232.187 0 .386.075.443.167.171.278 1.083.202 1.083-.089 0-.249-.458-1.075-.691-1.246-.064-.047-.167-.291-.231-.542-.063-.251-.181-.456-.263-.456-.081 0-.148-.107-.148-.238s-.103-.341-.228-.467c-.126-.125-.286-.412-.356-.636-.07-.225-.177-.447-.237-.493-.174-.132-2.85-5.562-2.848-5.777.001-.107-.054-.22-.123-.25-.173-.077-.875-1.83-.875-2.184 0-.159-.075-.289-.167-.289-.091 0-.166-.138-.166-.307 0-.388-1.159-2.693-1.355-2.693-.08 0-.145-.083-.145-.185 0-.369-4.478-5.148-4.823-5.148-.065 0-.369-.225-.677-.5-.308-.275-.614-.5-.678-.5-.065 0-.17-.272-.232-.604-.062-.332-.18-.726-.263-.875a17.076 17.076 0 01-.497-1.104 74.902 74.902 0 00-.497-1.167c-.625-1.402-.833-1.922-.833-2.074 0-.097-.067-.176-.149-.176-.082 0-.2-.205-.263-.457-.063-.251-.166-.495-.229-.541-.063-.047-.318-.498-.568-1.002a30.122 30.122 0 00-.954-1.75 24.565 24.565 0 01-.707-1.25c-.114-.229-.246-.454-.294-.5-.126-.121-.488-.71-.614-1-.238-.544-3.279-5-3.413-5-.078 0-.143-.078-.143-.174 0-.095-.076-.264-.169-.375a17.53 17.53 0 01-.997-1.285c-.316-.461-1.843-2.388-1.981-2.499-.056-.046-.401-.459-.766-.917-.822-1.033-2.308-2.692-4.275-4.772-.241-.255-.397-.504-.347-.554.05-.05.012-.091-.083-.091-.096 0-.661-.468-1.255-1.041a166.513 166.513 0 00-2.535-2.375c-.8-.734-1.839-1.69-2.309-2.125-.471-.436-.903-.792-.961-.792-.059 0-.292-.169-.519-.375-.803-.729-2.019-1.709-2.201-1.775a.638.638 0 01-.268-.188c-.103-.15-1.644-1.329-1.738-1.329-.07 0-.738-.542-1.263-1.025a2.094 2.094 0 00-.65-.386c-.192-.061-.349-.181-.349-.267 0-.085-.078-.155-.174-.155-.155 0-1.117-.61-1.326-.842-.046-.051-.384-.273-.75-.494-.367-.221-.766-.498-.887-.616s-.328-.215-.459-.215-.238-.075-.238-.166c0-.092-.108-.167-.241-.167a.5.5 0 01-.375-.208c-.074-.115-.506-.396-.962-.625-.812-.409-1.055-.563-1.477-.937-.116-.102-.391-.243-.611-.313-.221-.07-.504-.23-.629-.356-.126-.125-.336-.228-.467-.228s-.238-.069-.238-.153c0-.084-.23-.204-.512-.266-.281-.062-.472-.152-.423-.201.048-.048-.302-.285-.78-.526-.477-.24-.905-.483-.951-.54-.046-.056-.271-.16-.5-.23-.229-.071-.454-.175-.5-.231-.103-.127-3.612-1.863-4.75-2.35a79.955 79.955 0 01-1.334-.584c-1.153-.525-1.727-.752-1.9-.752-.101 0-.183-.075-.183-.167 0-.091-.131-.169-.292-.172-.16-.003-.591-.151-.958-.328-.367-.177-.754-.324-.861-.327-.108-.003-.408-.114-.667-.246-.839-.426-1.683-.76-1.922-.76a.703.703 0 01-.423-.19c-.197-.196-3.726-.351-4.585-.201"/></g></svg>