<svg id="svg" xmlns="http://www.w3.org/2000/svg" xmlns:xlink="http://www.w3.org/1999/xlink" width="400"
     height="133.08176100628933" viewBox="0, 0, 400,133.08176100628933" version="1.1">
    <g id="svgg">
        <path id="path0"
              d="M225.784 42.743 C 225.949 42.968,226.183 43.193,226.304 43.242 C 226.425 43.292,226.350 43.112,226.137 42.842 C 225.670 42.250,225.360 42.163,225.784 42.743 M223.833 52.552 C 223.833 52.581,224.077 52.825,224.375 53.094 L 224.917 53.583 224.427 53.042 C 223.971 52.537,223.833 52.423,223.833 52.552 M245.667 71.631 C 245.667 71.702,245.817 71.888,246.000 72.045 C 246.183 72.202,246.333 72.272,246.333 72.202 C 246.333 72.132,246.183 71.946,246.000 71.789 C 245.817 71.632,245.667 71.561,245.667 71.631 M178.833 79.456 C 178.237 79.490,177.679 79.589,177.592 79.675 C 177.505 79.762,177.198 79.833,176.911 79.833 C 176.345 79.833,174.182 80.452,173.925 80.688 C 173.838 80.768,173.632 80.833,173.467 80.833 C 173.302 80.833,173.167 80.902,173.167 80.987 C 173.167 81.071,172.942 81.190,172.667 81.250 C 172.392 81.310,172.167 81.429,172.167 81.513 C 172.167 81.598,172.058 81.667,171.925 81.667 C 171.792 81.667,171.623 81.760,171.550 81.875 C 171.477 81.990,171.127 82.231,170.772 82.412 C 170.418 82.592,170.091 82.836,170.046 82.953 C 170.001 83.071,169.866 83.167,169.746 83.167 C 169.450 83.167,167.000 85.632,167.000 85.930 C 167.000 86.060,166.934 86.167,166.853 86.167 C 166.647 86.167,165.437 88.082,165.010 89.083 C 164.815 89.542,164.588 90.039,164.506 90.188 C 164.423 90.337,164.304 90.749,164.240 91.104 C 164.176 91.460,164.050 91.842,163.960 91.955 C 163.871 92.068,163.759 92.968,163.711 93.955 C 163.663 94.942,163.544 95.849,163.447 95.971 C 163.326 96.123,163.325 96.227,163.444 96.304 C 163.539 96.366,163.662 97.235,163.717 98.235 C 163.772 99.236,163.885 100.098,163.967 100.152 C 164.049 100.206,164.166 100.572,164.228 100.966 C 164.289 101.359,164.410 101.809,164.497 101.966 C 164.583 102.122,164.841 102.662,165.070 103.167 C 165.631 104.402,166.205 105.388,166.458 105.550 C 166.573 105.623,166.667 105.760,166.667 105.854 C 166.667 105.949,166.892 106.251,167.167 106.526 C 167.442 106.801,167.667 107.076,167.667 107.138 C 167.669 107.325,168.728 108.390,169.341 108.821 C 169.658 109.043,169.977 109.325,170.050 109.446 C 170.123 109.567,170.292 109.667,170.425 109.667 C 170.558 109.667,170.667 109.740,170.667 109.830 C 170.667 109.920,170.849 110.039,171.071 110.095 C 171.294 110.151,171.516 110.302,171.566 110.432 C 171.616 110.561,171.765 110.667,171.898 110.667 C 172.030 110.667,172.164 110.723,172.194 110.792 C 172.245 110.905,172.493 111.033,173.833 111.643 C 174.670 112.023,176.391 112.500,176.924 112.500 C 177.226 112.500,177.497 112.574,177.528 112.664 C 177.560 112.759,178.739 112.854,180.333 112.890 C 183.445 112.961,183.639 113.022,184.979 114.344 C 185.690 115.045,186.500 116.359,186.500 116.810 C 186.500 116.914,186.565 117.000,186.645 117.000 C 186.725 117.000,186.840 117.308,186.900 117.684 C 187.085 118.843,187.813 119.410,189.115 119.414 C 189.700 119.415,190.232 119.336,190.297 119.238 C 190.363 119.139,190.548 119.011,190.708 118.951 C 190.869 118.892,191.000 118.729,191.000 118.589 C 191.000 118.448,191.075 118.333,191.167 118.333 C 191.376 118.333,191.390 116.055,191.181 115.926 C 191.097 115.874,190.978 115.532,190.917 115.166 C 190.855 114.800,190.742 114.500,190.665 114.500 C 190.589 114.500,190.477 114.275,190.417 114.000 C 190.356 113.725,190.246 113.500,190.171 113.500 C 190.097 113.500,189.991 113.319,189.935 113.098 C 189.842 112.727,189.521 112.273,188.795 111.486 C 188.453 111.115,188.562 110.722,189.049 110.568 C 189.243 110.506,189.504 110.353,189.629 110.228 C 189.755 110.103,189.964 110.000,190.095 110.000 C 190.226 110.000,190.333 109.923,190.333 109.828 C 190.333 109.734,190.465 109.606,190.625 109.544 C 191.007 109.398,193.833 106.610,193.833 106.380 C 193.833 106.282,193.946 106.159,194.083 106.106 C 194.221 106.054,194.333 105.896,194.333 105.755 C 194.333 105.615,194.407 105.500,194.497 105.500 C 194.587 105.500,194.707 105.313,194.765 105.083 C 194.822 104.854,194.930 104.667,195.005 104.667 C 195.079 104.667,195.190 104.442,195.250 104.167 C 195.310 103.892,195.423 103.667,195.500 103.667 C 195.577 103.667,195.690 103.442,195.750 103.167 C 195.810 102.892,195.921 102.667,195.995 102.667 C 196.069 102.667,196.182 102.385,196.246 102.042 C 196.311 101.698,196.431 101.334,196.515 101.233 C 196.598 101.132,196.714 100.682,196.773 100.233 C 196.831 99.784,196.953 99.323,197.043 99.208 C 197.259 98.934,197.259 93.399,197.043 93.125 C 196.953 93.010,196.833 92.510,196.777 92.013 C 196.721 91.516,196.599 91.032,196.504 90.938 C 196.410 90.844,196.333 90.662,196.333 90.534 C 196.333 90.305,196.083 89.667,195.535 88.500 C 195.150 87.681,194.047 86.011,193.498 85.417 C 192.134 83.941,190.756 82.667,190.524 82.667 C 190.419 82.667,190.333 82.593,190.333 82.503 C 190.333 82.413,190.151 82.294,189.929 82.238 C 189.706 82.182,189.484 82.031,189.434 81.902 C 189.384 81.772,189.229 81.667,189.089 81.667 C 188.948 81.667,188.833 81.598,188.833 81.513 C 188.833 81.429,188.608 81.310,188.333 81.250 C 188.058 81.190,187.833 81.071,187.833 80.987 C 187.833 80.902,187.698 80.833,187.533 80.833 C 187.368 80.833,187.162 80.768,187.075 80.688 C 186.838 80.470,184.674 79.833,184.172 79.833 C 183.931 79.833,183.662 79.768,183.575 79.688 C 183.388 79.516,180.381 79.369,178.833 79.456 M72.045 79.967 C 71.707 80.001,71.289 80.232,70.920 80.591 L 70.333 81.161 70.333 96.167 L 70.333 111.173 70.931 111.753 C 71.889 112.683,73.801 112.508,74.523 111.425 C 74.706 111.149,74.766 109.118,74.833 100.917 C 74.908 91.767,74.941 90.800,75.165 91.250 C 75.301 91.525,75.507 91.849,75.623 91.970 C 75.739 92.091,75.833 92.298,75.833 92.429 C 75.833 92.560,75.891 92.667,75.960 92.667 C 76.089 92.667,76.310 93.030,76.697 93.875 C 76.812 94.127,76.957 94.333,77.018 94.333 C 77.080 94.333,77.178 94.521,77.235 94.750 C 77.293 94.979,77.413 95.167,77.503 95.167 C 77.593 95.167,77.667 95.238,77.667 95.324 C 77.667 95.544,78.859 97.571,79.029 97.639 C 79.105 97.669,79.167 97.772,79.167 97.867 C 79.167 98.088,80.356 100.065,80.533 100.139 C 80.606 100.169,80.667 100.272,80.667 100.367 C 80.667 100.532,81.795 102.493,81.990 102.667 C 82.041 102.712,82.271 103.125,82.500 103.583 C 82.729 104.042,82.973 104.442,83.042 104.472 C 83.110 104.503,83.167 104.636,83.167 104.769 C 83.167 104.902,83.272 105.051,83.402 105.101 C 83.531 105.150,83.678 105.354,83.729 105.554 C 83.891 106.188,84.821 107.167,85.262 107.167 C 85.485 107.167,85.667 107.242,85.667 107.333 C 85.667 107.425,85.929 107.500,86.250 107.500 C 86.571 107.500,86.833 107.425,86.833 107.333 C 86.833 107.242,87.009 107.167,87.224 107.167 C 87.627 107.167,88.167 106.706,88.167 106.362 C 88.167 106.255,88.224 106.167,88.294 106.167 C 88.420 106.167,88.517 106.016,88.998 105.070 C 89.134 104.803,89.341 104.484,89.456 104.363 C 89.572 104.242,89.667 104.036,89.667 103.905 C 89.667 103.774,89.724 103.667,89.794 103.667 C 89.920 103.667,90.017 103.516,90.498 102.570 C 90.634 102.303,90.841 101.984,90.956 101.863 C 91.072 101.742,91.167 101.536,91.167 101.405 C 91.167 101.274,91.225 101.167,91.297 101.167 C 91.368 101.167,91.516 100.960,91.624 100.708 C 91.836 100.216,92.186 99.635,92.353 99.500 C 92.409 99.454,92.508 99.248,92.572 99.042 C 92.636 98.835,92.759 98.667,92.845 98.667 C 92.930 98.667,93.000 98.583,93.000 98.480 C 93.000 98.286,94.145 96.313,94.342 96.167 C 94.404 96.121,94.513 95.899,94.583 95.674 C 94.653 95.450,94.813 95.163,94.939 95.038 C 95.064 94.912,95.167 94.702,95.167 94.571 C 95.167 94.440,95.242 94.333,95.333 94.333 C 95.425 94.333,95.500 94.218,95.500 94.078 C 95.500 93.938,95.608 93.781,95.740 93.731 C 95.872 93.680,96.028 93.420,96.086 93.153 C 96.145 92.885,96.261 92.667,96.343 92.667 C 96.426 92.667,96.541 92.479,96.598 92.250 C 96.656 92.021,96.770 91.833,96.851 91.833 C 96.933 91.833,97.000 91.730,97.000 91.604 C 97.000 91.477,97.112 91.281,97.250 91.167 C 97.472 90.983,97.500 92.066,97.500 100.746 C 97.500 111.491,97.481 111.274,98.505 112.003 C 99.373 112.622,100.965 112.412,101.695 111.583 C 102.143 111.075,102.161 81.575,101.714 80.817 C 101.557 80.551,101.338 80.333,101.228 80.333 C 101.118 80.333,101.002 80.256,100.970 80.161 C 100.699 79.348,98.117 80.255,97.641 81.330 C 97.519 81.607,97.370 81.833,97.311 81.833 C 97.251 81.833,97.156 82.021,97.098 82.250 C 97.041 82.479,96.926 82.667,96.843 82.667 C 96.761 82.667,96.645 82.885,96.586 83.153 C 96.528 83.420,96.372 83.680,96.240 83.731 C 96.108 83.781,96.000 83.931,96.000 84.064 C 96.000 84.197,95.944 84.331,95.875 84.361 C 95.806 84.392,95.563 84.790,95.333 85.247 C 95.104 85.704,94.842 86.170,94.750 86.283 C 94.658 86.396,94.493 86.597,94.382 86.730 C 94.271 86.863,94.132 87.165,94.072 87.402 C 94.013 87.639,93.902 87.833,93.826 87.833 C 93.751 87.833,93.636 88.002,93.572 88.208 C 93.508 88.415,93.409 88.621,93.353 88.667 C 93.216 88.777,92.879 89.318,92.626 89.833 C 92.513 90.063,92.326 90.349,92.210 90.470 C 92.095 90.591,92.000 90.798,92.000 90.929 C 92.000 91.060,91.941 91.167,91.870 91.167 C 91.798 91.167,91.651 91.373,91.543 91.625 C 91.331 92.117,90.981 92.698,90.814 92.833 C 90.758 92.879,90.659 93.085,90.595 93.292 C 90.530 93.498,90.414 93.667,90.335 93.667 C 90.257 93.667,90.144 93.892,90.083 94.167 C 90.023 94.442,89.910 94.667,89.831 94.667 C 89.753 94.667,89.636 94.835,89.572 95.042 C 89.508 95.248,89.409 95.454,89.353 95.500 C 89.216 95.611,88.879 96.151,88.626 96.667 C 88.513 96.896,88.326 97.182,88.210 97.304 C 88.095 97.425,88.000 97.631,88.000 97.762 C 88.000 97.893,87.931 98.000,87.847 98.000 C 87.762 98.000,87.645 98.219,87.586 98.486 C 87.528 98.753,87.372 99.014,87.240 99.064 C 87.108 99.115,87.000 99.271,87.000 99.411 C 87.000 99.552,86.943 99.667,86.873 99.667 C 86.803 99.667,86.672 99.835,86.581 100.041 C 86.324 100.625,85.884 100.608,85.752 100.009 C 85.691 99.729,85.576 99.500,85.498 99.500 C 85.420 99.500,85.303 99.331,85.239 99.125 C 85.174 98.919,85.076 98.712,85.019 98.667 C 84.853 98.531,84.502 97.950,84.291 97.458 C 84.182 97.206,84.043 97.000,83.982 97.000 C 83.920 97.000,83.822 96.813,83.765 96.583 C 83.707 96.354,83.587 96.167,83.497 96.167 C 83.407 96.167,83.333 96.083,83.333 95.980 C 83.333 95.778,82.181 93.804,81.982 93.665 C 81.915 93.618,81.808 93.374,81.745 93.123 C 81.682 92.872,81.569 92.667,81.493 92.667 C 81.418 92.667,81.303 92.498,81.239 92.292 C 81.174 92.085,81.076 91.879,81.019 91.833 C 80.883 91.723,80.546 91.182,80.292 90.667 C 80.180 90.438,79.993 90.151,79.877 90.030 C 79.761 89.909,79.667 89.702,79.667 89.571 C 79.667 89.440,79.600 89.333,79.519 89.333 C 79.438 89.333,79.331 89.202,79.280 89.042 C 79.156 88.652,78.615 87.764,78.458 87.694 C 78.390 87.664,78.333 87.538,78.333 87.415 C 78.333 87.291,78.239 87.091,78.123 86.970 C 78.007 86.849,77.801 86.531,77.665 86.263 C 77.183 85.318,77.086 85.167,76.960 85.167 C 76.891 85.167,76.833 85.060,76.833 84.929 C 76.833 84.798,76.740 84.590,76.625 84.467 C 76.510 84.345,76.231 83.889,76.003 83.455 C 75.776 83.022,75.532 82.667,75.462 82.667 C 75.391 82.667,75.333 82.573,75.332 82.458 C 75.331 82.140,74.136 80.359,73.842 80.236 C 73.346 80.029,72.580 79.915,72.045 79.967 M107.292 80.353 C 107.040 80.541,106.833 80.801,106.833 80.931 C 106.833 81.060,106.758 81.167,106.667 81.167 C 106.557 81.167,106.500 86.276,106.500 96.161 L 106.500 111.156 107.089 111.744 L 107.678 112.333 118.422 112.333 C 125.474 112.333,129.167 112.276,129.167 112.167 C 129.167 112.075,129.252 112.000,129.355 112.000 C 130.727 112.000,130.400 108.392,129.000 108.074 C 128.771 108.022,128.453 107.909,128.294 107.823 C 128.124 107.731,124.458 107.667,119.419 107.667 L 110.833 107.667 110.833 102.917 L 110.833 98.167 118.807 98.167 L 126.781 98.167 127.204 97.792 C 128.253 96.860,128.318 95.536,127.365 94.514 L 126.731 93.833 118.782 93.833 L 110.833 93.833 110.833 89.250 L 110.833 84.667 119.333 84.667 C 124.889 84.667,127.833 84.609,127.833 84.500 C 127.833 84.408,128.047 84.333,128.307 84.333 C 128.854 84.333,129.667 83.707,129.667 83.286 C 129.667 83.129,129.742 83.000,129.833 83.000 C 130.445 83.000,129.791 80.896,129.006 80.337 C 128.258 79.805,108.006 79.819,107.292 80.353 M135.809 80.670 L 135.083 81.347 135.083 96.062 C 135.083 112.485,135.022 111.624,136.229 112.175 C 136.828 112.447,138.377 112.452,138.467 112.182 C 138.501 112.082,138.634 112.000,138.764 112.000 C 138.894 112.000,139.000 111.930,139.000 111.845 C 139.000 111.760,139.131 111.559,139.292 111.399 C 139.564 111.127,139.587 110.218,139.631 97.877 L 139.678 84.647 145.314 84.698 C 149.174 84.734,151.023 84.809,151.183 84.938 C 151.312 85.041,151.593 85.180,151.809 85.246 C 152.629 85.498,153.996 86.860,154.252 87.679 C 154.321 87.902,154.462 88.137,154.564 88.202 C 154.842 88.380,154.820 93.365,154.542 93.458 C 154.427 93.496,154.333 93.628,154.333 93.751 C 154.333 94.058,152.847 95.667,152.563 95.667 C 152.437 95.667,152.333 95.736,152.333 95.820 C 152.333 95.904,152.108 96.023,151.833 96.083 C 151.558 96.144,151.333 96.257,151.333 96.335 C 151.333 96.412,150.921 96.528,150.417 96.591 C 149.912 96.654,149.500 96.760,149.500 96.827 C 149.500 96.894,148.489 96.994,147.254 97.050 C 144.788 97.162,143.833 97.597,143.833 98.610 C 143.833 98.825,143.758 99.000,143.667 99.000 C 143.575 99.000,143.500 99.188,143.500 99.417 C 143.500 99.646,143.575 99.833,143.667 99.833 C 143.758 99.833,143.833 100.010,143.833 100.226 C 143.833 101.190,144.562 101.578,146.489 101.641 C 147.457 101.672,148.325 101.757,148.417 101.830 C 148.508 101.902,148.846 102.017,149.167 102.085 C 149.487 102.153,149.787 102.255,149.833 102.313 C 149.959 102.470,150.974 103.167,151.077 103.167 C 151.386 103.167,153.333 105.854,153.333 106.281 C 153.333 106.401,153.405 106.500,153.492 106.500 C 153.580 106.500,153.701 106.763,153.761 107.083 C 153.821 107.404,153.929 107.667,154.000 107.667 C 154.071 107.667,154.179 108.004,154.241 108.417 C 154.303 108.829,154.414 109.167,154.487 109.167 C 154.561 109.167,154.670 109.584,154.730 110.093 C 154.839 111.026,154.923 111.193,155.645 111.906 C 156.745 112.993,158.951 112.283,159.239 110.750 C 159.357 110.124,159.199 108.515,158.993 108.250 C 158.923 108.158,158.811 107.727,158.747 107.292 C 158.682 106.856,158.562 106.500,158.481 106.500 C 158.400 106.500,158.331 106.331,158.328 106.125 C 158.325 105.919,158.177 105.450,158.000 105.083 C 157.823 104.717,157.675 104.323,157.672 104.208 C 157.669 104.094,157.598 104.000,157.513 104.000 C 157.429 104.000,157.310 103.775,157.250 103.500 C 157.190 103.225,157.073 103.000,156.990 103.000 C 156.907 103.000,156.794 102.818,156.738 102.595 C 156.682 102.373,156.531 102.150,156.402 102.101 C 156.272 102.051,156.167 101.927,156.167 101.825 C 156.167 101.724,155.833 101.306,155.424 100.898 C 154.742 100.216,154.569 99.667,155.036 99.667 C 155.706 99.667,158.333 96.860,158.333 96.143 C 158.333 95.973,158.402 95.833,158.487 95.833 C 158.571 95.833,158.693 95.590,158.758 95.292 C 158.822 94.994,158.948 94.703,159.038 94.646 C 159.128 94.589,159.241 93.895,159.291 93.105 C 159.340 92.314,159.445 91.667,159.523 91.667 C 159.709 91.667,159.711 90.547,159.525 90.432 C 159.447 90.384,159.339 89.655,159.284 88.813 C 159.230 87.970,159.115 87.236,159.030 87.182 C 158.944 87.128,158.821 86.765,158.756 86.375 C 158.691 85.985,158.575 85.667,158.499 85.667 C 158.422 85.667,158.310 85.442,158.250 85.167 C 158.190 84.892,158.076 84.667,157.998 84.667 C 157.920 84.667,157.812 84.529,157.758 84.360 C 157.523 83.618,155.529 81.876,154.183 81.239 C 153.670 80.995,153.115 80.726,152.950 80.641 C 152.060 80.183,150.790 80.100,143.809 80.048 L 136.535 79.993 135.809 80.670 M264.931 80.580 C 264.602 80.900,264.333 81.312,264.333 81.497 C 264.333 81.682,264.264 81.833,264.180 81.833 C 264.096 81.833,263.977 82.058,263.917 82.333 C 263.856 82.608,263.738 82.833,263.653 82.833 C 263.569 82.833,263.497 82.927,263.494 83.042 C 263.491 83.156,263.344 83.550,263.167 83.917 C 262.990 84.283,262.842 84.715,262.839 84.875 C 262.836 85.035,262.764 85.167,262.680 85.167 C 262.596 85.167,262.477 85.392,262.417 85.667 C 262.356 85.942,262.244 86.167,262.167 86.167 C 262.090 86.167,261.977 86.392,261.917 86.667 C 261.856 86.942,261.746 87.167,261.672 87.167 C 261.598 87.167,261.488 87.429,261.428 87.750 C 261.367 88.071,261.253 88.333,261.172 88.333 C 261.092 88.333,260.977 88.558,260.917 88.833 C 260.856 89.108,260.738 89.333,260.653 89.333 C 260.569 89.333,260.500 89.413,260.500 89.511 C 260.500 89.733,259.024 92.992,258.229 94.526 C 258.103 94.769,258.000 95.088,258.000 95.234 C 258.000 95.380,257.925 95.500,257.833 95.500 C 257.742 95.500,257.667 95.595,257.667 95.711 C 257.667 95.827,257.517 96.201,257.333 96.544 C 257.150 96.886,257.000 97.278,257.000 97.416 C 257.000 97.554,256.931 97.667,256.847 97.667 C 256.762 97.667,256.644 97.892,256.583 98.167 C 256.523 98.442,256.404 98.667,256.320 98.667 C 256.236 98.667,256.164 98.760,256.161 98.875 C 256.158 98.990,256.010 99.383,255.833 99.750 C 255.656 100.117,255.509 100.548,255.506 100.708 C 255.503 100.869,255.431 101.000,255.347 101.000 C 255.262 101.000,255.144 101.225,255.083 101.500 C 255.023 101.775,254.904 102.000,254.820 102.000 C 254.736 102.000,254.664 102.094,254.661 102.208 C 254.658 102.323,254.510 102.717,254.333 103.083 C 254.156 103.450,254.009 103.844,254.006 103.958 C 254.003 104.073,253.931 104.167,253.847 104.167 C 253.762 104.167,253.644 104.392,253.583 104.667 C 253.523 104.942,253.404 105.167,253.320 105.167 C 253.236 105.167,253.166 105.260,253.166 105.375 C 253.165 105.490,253.060 105.785,252.931 106.030 C 252.803 106.276,252.648 106.708,252.586 106.989 C 252.524 107.270,252.413 107.500,252.338 107.500 C 252.264 107.500,252.151 107.705,252.088 107.957 C 252.025 108.208,251.886 108.468,251.778 108.534 C 251.312 108.822,251.425 111.446,251.924 111.909 C 252.399 112.349,254.167 112.552,254.167 112.167 C 254.167 112.075,254.271 112.000,254.398 112.000 C 254.606 112.000,254.959 111.700,256.768 109.990 C 257.053 109.720,257.344 109.500,257.416 109.500 C 257.487 109.500,257.711 109.321,257.913 109.103 C 258.116 108.884,258.436 108.657,258.625 108.596 C 258.814 108.536,259.011 108.378,259.063 108.244 C 259.114 108.110,259.271 108.000,259.411 108.000 C 259.552 108.000,259.667 107.926,259.667 107.837 C 259.667 107.747,259.854 107.626,260.083 107.568 C 260.313 107.511,260.500 107.408,260.500 107.339 C 260.500 107.190,262.837 106.000,263.129 106.000 C 263.242 106.000,263.333 105.933,263.333 105.852 C 263.333 105.770,263.596 105.655,263.917 105.594 C 264.237 105.534,264.500 105.423,264.500 105.347 C 264.500 105.272,264.892 105.158,265.371 105.094 C 265.850 105.031,266.339 104.898,266.457 104.800 C 267.169 104.209,274.112 104.475,274.269 105.098 C 274.324 105.319,274.436 105.500,274.518 105.500 C 274.600 105.500,274.669 105.594,274.672 105.708 C 274.675 105.823,274.823 106.217,275.000 106.583 C 275.177 106.950,275.325 107.344,275.328 107.458 C 275.331 107.573,275.408 107.667,275.500 107.667 C 275.592 107.667,275.667 107.760,275.668 107.875 C 275.668 107.990,275.774 108.285,275.902 108.530 C 276.030 108.776,276.186 109.208,276.248 109.489 C 276.309 109.770,276.421 110.000,276.495 110.000 C 276.570 110.000,276.682 110.205,276.745 110.457 C 276.808 110.708,276.910 110.952,276.972 110.998 C 277.033 111.045,277.165 111.231,277.265 111.411 C 277.946 112.643,280.148 112.626,280.999 111.383 C 281.415 110.777,281.439 108.674,281.032 108.538 C 280.923 108.502,280.833 108.399,280.833 108.310 C 280.833 108.164,280.578 107.544,279.905 106.058 C 279.774 105.769,279.667 105.451,279.667 105.350 C 279.667 105.249,279.592 105.167,279.500 105.167 C 279.408 105.167,279.331 105.073,279.328 104.958 C 279.325 104.844,279.177 104.450,279.000 104.083 C 278.823 103.717,278.675 103.323,278.672 103.208 C 278.669 103.094,278.592 103.000,278.500 103.000 C 278.408 103.000,278.333 102.918,278.333 102.817 C 278.333 102.634,278.086 102.027,277.485 100.732 C 277.310 100.355,277.167 99.961,277.167 99.857 C 277.167 99.752,277.092 99.667,277.000 99.667 C 276.908 99.667,276.831 99.573,276.828 99.458 C 276.825 99.344,276.677 98.950,276.500 98.583 C 276.323 98.217,276.175 97.823,276.172 97.708 C 276.169 97.594,276.100 97.500,276.018 97.500 C 275.936 97.500,275.819 97.299,275.757 97.054 C 275.696 96.808,275.425 96.136,275.156 95.561 C 274.887 94.985,274.667 94.436,274.667 94.340 C 274.667 94.245,274.592 94.167,274.500 94.167 C 274.408 94.167,274.333 94.054,274.333 93.917 C 274.333 93.639,273.345 91.464,273.160 91.333 C 273.095 91.287,272.989 91.006,272.924 90.708 C 272.860 90.410,272.744 90.167,272.667 90.167 C 272.590 90.167,272.477 89.942,272.417 89.667 C 272.356 89.392,272.238 89.167,272.153 89.167 C 272.069 89.167,271.997 89.035,271.994 88.875 C 271.991 88.715,271.844 88.283,271.667 87.917 C 271.490 87.550,271.342 87.156,271.339 87.042 C 271.336 86.927,271.258 86.833,271.167 86.833 C 271.075 86.833,270.997 86.740,270.994 86.625 C 270.991 86.510,270.844 86.117,270.667 85.750 C 270.490 85.383,270.342 84.990,270.339 84.875 C 270.336 84.760,270.264 84.667,270.180 84.667 C 270.096 84.667,269.977 84.442,269.917 84.167 C 269.856 83.892,269.744 83.667,269.668 83.667 C 269.592 83.667,269.479 83.367,269.417 83.000 C 269.355 82.633,269.242 82.333,269.165 82.333 C 269.089 82.333,268.977 82.108,268.917 81.833 C 268.856 81.558,268.738 81.333,268.653 81.333 C 268.569 81.333,268.500 81.228,268.500 81.098 C 268.500 79.959,265.951 79.590,264.931 80.580 M286.711 80.385 C 286.414 80.586,286.170 80.837,286.169 80.944 C 286.168 81.051,286.073 81.170,285.958 81.208 C 285.794 81.263,285.741 84.387,285.707 95.931 C 285.660 111.994,285.630 111.478,286.625 111.915 C 286.831 112.005,287.000 112.136,287.000 112.206 C 287.000 112.650,288.998 112.313,289.571 111.772 L 290.167 111.211 290.167 100.022 C 290.167 93.868,290.208 88.833,290.258 88.833 C 290.387 88.833,291.498 90.058,291.499 90.200 C 291.500 90.265,291.762 90.572,292.083 90.884 C 292.404 91.195,292.667 91.509,292.667 91.581 C 292.667 91.653,292.836 91.870,293.042 92.064 C 293.249 92.258,293.587 92.642,293.794 92.917 C 294.273 93.554,294.963 94.384,295.515 94.986 C 295.752 95.245,296.125 95.710,296.342 96.020 C 296.560 96.330,296.928 96.787,297.161 97.036 C 297.393 97.286,297.659 97.586,297.751 97.703 C 298.451 98.596,299.620 99.940,299.792 100.050 C 299.906 100.123,300.000 100.263,300.000 100.361 C 300.000 100.459,300.300 100.830,300.667 101.186 C 301.033 101.542,301.333 101.904,301.333 101.992 C 301.333 102.079,301.596 102.406,301.917 102.717 C 302.237 103.029,302.500 103.341,302.500 103.411 C 302.500 103.482,302.800 103.830,303.167 104.186 C 303.533 104.542,303.833 104.904,303.833 104.992 C 303.833 105.079,304.096 105.406,304.417 105.717 C 304.737 106.029,305.000 106.335,305.000 106.398 C 305.000 106.461,305.300 106.825,305.667 107.207 C 306.033 107.588,306.333 107.957,306.333 108.026 C 306.333 108.094,306.596 108.406,306.917 108.717 C 307.237 109.029,307.500 109.335,307.500 109.398 C 307.500 109.461,307.800 109.825,308.167 110.207 C 308.533 110.588,308.833 110.949,308.833 111.008 C 308.833 112.348,312.163 112.781,313.087 111.561 C 313.369 111.189,313.459 81.167,313.178 81.167 C 313.092 81.167,312.980 81.033,312.928 80.869 C 312.578 79.765,309.333 79.793,309.333 80.900 C 309.333 81.032,309.240 81.170,309.125 81.208 C 308.962 81.263,308.907 83.681,308.870 92.389 C 308.828 102.517,308.758 104.241,308.427 103.199 C 308.375 103.034,308.032 102.587,307.666 102.206 C 307.300 101.825,307.000 101.461,307.000 101.398 C 307.000 101.335,306.737 101.029,306.417 100.717 C 306.096 100.406,305.833 100.094,305.833 100.026 C 305.833 99.957,305.533 99.588,305.167 99.207 C 304.800 98.825,304.500 98.452,304.500 98.377 C 304.500 98.302,304.292 98.055,304.037 97.829 C 303.782 97.602,303.389 97.154,303.164 96.833 C 302.939 96.513,302.604 96.100,302.419 95.917 C 302.233 95.733,301.615 95.010,301.043 94.308 C 299.504 92.420,299.299 92.178,298.726 91.575 C 298.438 91.273,298.176 90.953,298.143 90.865 C 298.070 90.670,296.945 89.327,296.208 88.556 C 295.910 88.244,295.667 87.922,295.667 87.841 C 295.667 87.760,295.329 87.355,294.917 86.943 C 294.504 86.530,294.167 86.138,294.167 86.072 C 294.167 86.005,293.904 85.695,293.583 85.384 C 293.262 85.072,293.000 84.761,293.000 84.692 C 293.000 84.623,292.700 84.255,292.333 83.873 C 291.967 83.492,291.667 83.128,291.667 83.065 C 291.667 83.002,291.404 82.695,291.083 82.384 C 290.762 82.072,290.500 81.765,290.499 81.700 C 290.498 81.519,289.440 80.441,289.034 80.208 C 288.468 79.883,287.324 79.971,286.711 80.385 M318.322 80.510 C 317.095 81.606,317.715 84.333,319.191 84.333 C 319.453 84.333,319.667 84.408,319.667 84.500 C 319.667 84.607,321.278 84.667,324.167 84.667 L 328.667 84.667 328.667 97.917 C 328.667 106.001,328.727 111.167,328.822 111.167 C 328.908 111.167,329.025 111.316,329.083 111.500 C 329.141 111.683,329.371 111.878,329.594 111.934 C 329.817 111.990,330.000 112.103,330.000 112.185 C 330.000 112.266,330.375 112.333,330.833 112.333 C 331.292 112.333,331.667 112.266,331.667 112.185 C 331.667 112.103,331.849 111.990,332.072 111.934 C 332.295 111.878,332.525 111.683,332.583 111.500 C 332.642 111.316,332.759 111.167,332.845 111.167 C 332.939 111.167,333.000 106.001,333.000 97.917 L 333.000 84.667 337.407 84.667 C 340.165 84.667,341.852 84.604,341.917 84.500 C 341.973 84.408,342.226 84.333,342.479 84.333 C 344.203 84.333,344.504 80.977,342.849 80.196 C 342.543 80.052,339.343 80.000,330.663 80.000 L 318.893 80.000 318.322 80.510 M181.068 83.975 C 181.116 84.053,181.732 84.166,182.436 84.225 C 183.140 84.285,183.798 84.402,183.900 84.485 C 184.001 84.569,184.365 84.689,184.708 84.754 C 185.052 84.818,185.333 84.931,185.333 85.005 C 185.333 85.079,185.558 85.190,185.833 85.250 C 186.108 85.310,186.333 85.429,186.333 85.513 C 186.333 85.598,186.427 85.667,186.542 85.667 C 187.052 85.667,189.148 87.488,190.417 89.034 C 190.836 89.545,192.000 91.865,192.000 92.190 C 192.000 92.324,192.069 92.505,192.153 92.592 C 192.821 93.285,192.769 98.289,192.078 99.775 C 191.943 100.064,191.833 100.416,191.833 100.557 C 191.833 100.698,191.764 100.856,191.679 100.909 C 191.595 100.961,191.478 101.222,191.419 101.488 C 191.361 101.754,191.205 102.014,191.073 102.064 C 190.941 102.115,190.833 102.271,190.833 102.411 C 190.833 102.552,190.763 102.667,190.678 102.667 C 190.592 102.667,190.475 102.815,190.418 102.997 C 190.331 103.270,189.399 104.408,188.884 104.870 C 188.810 104.935,188.504 105.217,188.203 105.495 C 187.902 105.773,187.588 106.000,187.506 106.000 C 187.424 106.000,187.255 106.094,187.130 106.208 C 186.579 106.713,185.185 107.433,184.451 107.593 C 184.157 107.656,183.874 107.775,183.822 107.857 C 183.769 107.939,183.111 108.053,182.358 108.111 C 181.605 108.169,180.949 108.281,180.901 108.358 C 180.788 108.542,180.046 108.542,179.932 108.358 C 179.884 108.280,179.292 108.170,178.617 108.113 C 177.941 108.056,177.170 107.895,176.903 107.755 C 176.635 107.616,176.248 107.502,176.042 107.501 C 175.835 107.500,175.667 107.431,175.667 107.347 C 175.667 107.262,175.442 107.144,175.167 107.083 C 174.892 107.023,174.667 106.904,174.667 106.820 C 174.667 106.736,174.589 106.667,174.493 106.667 C 174.296 106.667,173.279 105.981,173.194 105.792 C 173.164 105.723,173.059 105.667,172.961 105.667 C 172.792 105.667,171.302 104.178,170.583 103.292 C 170.400 103.066,170.063 102.514,169.833 102.065 C 169.604 101.617,169.363 101.226,169.297 101.196 C 169.231 101.167,169.129 100.885,169.070 100.571 C 169.011 100.257,168.903 100.000,168.830 100.000 C 168.758 100.000,168.645 99.606,168.580 99.125 C 168.516 98.644,168.391 98.162,168.304 98.054 C 167.905 97.559,168.366 92.947,168.922 91.882 C 169.055 91.626,169.165 91.285,169.166 91.125 C 169.166 90.965,169.242 90.833,169.333 90.833 C 169.425 90.833,169.500 90.755,169.500 90.660 C 169.500 90.463,170.185 89.445,170.375 89.361 C 170.444 89.331,170.501 89.218,170.501 89.111 C 170.503 88.868,172.979 86.434,173.375 86.286 C 173.535 86.226,173.667 86.106,173.667 86.018 C 173.667 85.931,173.892 85.810,174.167 85.750 C 174.442 85.690,174.667 85.577,174.667 85.500 C 174.667 85.423,174.892 85.310,175.167 85.250 C 175.442 85.190,175.667 85.079,175.667 85.005 C 175.667 84.931,175.948 84.818,176.292 84.754 C 176.635 84.689,177.006 84.563,177.115 84.473 C 177.224 84.383,177.883 84.266,178.579 84.213 C 179.275 84.161,179.883 84.054,179.932 83.976 C 180.046 83.791,180.954 83.791,181.068 83.975 M266.897 88.805 C 266.980 89.095,267.106 89.333,267.178 89.333 C 267.249 89.333,267.356 89.558,267.417 89.833 C 267.477 90.108,267.596 90.333,267.680 90.333 C 267.764 90.333,267.836 90.465,267.839 90.625 C 267.842 90.785,267.990 91.217,268.167 91.583 C 268.344 91.950,268.491 92.344,268.494 92.458 C 268.497 92.573,268.569 92.667,268.653 92.667 C 268.738 92.667,268.856 92.892,268.917 93.167 C 268.977 93.442,269.087 93.667,269.161 93.667 C 269.236 93.667,269.345 93.929,269.406 94.250 C 269.466 94.571,269.581 94.833,269.661 94.833 C 269.741 94.833,269.856 95.058,269.917 95.333 C 269.977 95.608,270.096 95.833,270.180 95.833 C 270.264 95.833,270.336 95.965,270.339 96.125 C 270.342 96.285,270.490 96.717,270.667 97.083 C 270.844 97.450,270.991 97.844,270.994 97.958 C 270.997 98.073,271.075 98.167,271.167 98.167 C 271.258 98.167,271.336 98.260,271.339 98.375 C 271.342 98.490,271.490 98.883,271.667 99.250 C 271.844 99.617,271.991 99.973,271.994 100.042 C 271.997 100.110,271.063 100.167,269.917 100.167 C 268.771 100.167,267.833 100.231,267.833 100.309 C 267.833 100.388,267.217 100.503,266.464 100.566 C 265.711 100.629,265.054 100.742,265.006 100.817 C 264.957 100.892,264.560 101.006,264.125 101.070 C 263.690 101.135,263.333 101.249,263.333 101.325 C 263.333 101.400,262.996 101.513,262.583 101.575 C 262.171 101.636,261.833 101.757,261.833 101.844 C 261.833 101.930,261.740 102.000,261.625 102.001 C 261.510 102.002,261.215 102.107,260.970 102.235 C 259.916 102.785,259.043 102.604,259.835 102.000 C 260.020 101.859,261.500 98.608,261.500 98.342 C 261.500 98.246,261.575 98.167,261.667 98.167 C 261.758 98.167,261.833 98.088,261.833 97.992 C 261.833 97.896,262.096 97.257,262.417 96.572 C 262.737 95.887,263.000 95.215,263.000 95.080 C 263.000 94.944,263.069 94.833,263.153 94.833 C 263.238 94.833,263.356 94.608,263.417 94.333 C 263.477 94.058,263.590 93.833,263.667 93.833 C 263.744 93.833,263.856 93.608,263.917 93.333 C 263.977 93.058,264.096 92.833,264.180 92.833 C 264.264 92.833,264.336 92.740,264.339 92.625 C 264.342 92.510,264.490 92.117,264.667 91.750 C 264.844 91.383,264.991 90.990,264.994 90.875 C 264.997 90.760,265.069 90.667,265.153 90.667 C 265.238 90.667,265.356 90.442,265.417 90.167 C 265.477 89.892,265.596 89.667,265.680 89.667 C 265.764 89.667,265.833 89.584,265.833 89.484 C 265.833 88.479,266.653 87.956,266.897 88.805 "
              stroke="none" fill="#fff" fill-rule="evenodd"></path>
        <path id="path1"
              d="M180.292 16.109 C 180.040 16.153,179.833 16.259,179.833 16.344 C 179.833 16.430,179.689 16.500,179.512 16.500 C 179.335 16.500,179.078 16.612,178.940 16.750 C 178.803 16.887,178.591 17.000,178.470 17.001 C 178.349 17.002,178.025 17.151,177.750 17.333 C 177.475 17.515,177.119 17.665,176.958 17.666 C 176.798 17.666,176.667 17.742,176.667 17.833 C 176.667 17.925,176.598 18.000,176.515 18.000 C 176.431 18.000,175.803 18.262,175.117 18.583 C 174.432 18.904,173.788 19.167,173.686 19.167 C 173.584 19.167,173.500 19.236,173.500 19.320 C 173.500 19.404,173.275 19.523,173.000 19.583 C 172.725 19.644,172.500 19.754,172.500 19.829 C 172.500 19.903,172.294 20.014,172.042 20.076 C 171.790 20.138,170.742 20.596,169.713 21.094 C 168.685 21.592,167.766 22.000,167.672 22.000 C 167.577 22.000,167.500 22.069,167.500 22.153 C 167.500 22.238,167.275 22.356,167.000 22.417 C 166.725 22.477,166.500 22.596,166.500 22.680 C 166.500 22.764,166.406 22.836,166.292 22.839 C 166.177 22.842,165.783 22.990,165.417 23.167 C 165.050 23.344,164.619 23.491,164.458 23.494 C 164.298 23.497,164.167 23.569,164.167 23.653 C 164.167 23.738,163.942 23.856,163.667 23.917 C 163.392 23.977,163.167 24.087,163.167 24.162 C 163.167 24.236,162.960 24.345,162.708 24.404 C 162.152 24.534,161.105 25.036,161.028 25.208 C 160.997 25.277,160.866 25.333,160.736 25.333 C 160.605 25.333,160.219 25.483,159.877 25.667 C 159.535 25.850,159.160 26.000,159.044 26.000 C 158.928 26.000,158.833 26.067,158.833 26.148 C 158.833 26.230,158.571 26.345,158.250 26.406 C 157.929 26.466,157.667 26.581,157.667 26.661 C 157.667 26.741,157.442 26.856,157.167 26.917 C 156.892 26.977,156.667 27.080,156.667 27.144 C 156.667 27.209,156.142 27.444,155.500 27.667 C 154.858 27.889,154.333 28.124,154.333 28.189 C 154.333 28.254,154.108 28.356,153.833 28.417 C 153.558 28.477,153.333 28.596,153.333 28.680 C 153.333 28.764,153.254 28.833,153.158 28.833 C 152.998 28.833,152.399 29.079,150.891 29.762 C 150.603 29.893,150.290 30.000,150.197 30.000 C 150.104 30.000,150.003 30.056,149.972 30.125 C 149.942 30.194,149.654 30.371,149.333 30.518 C 149.012 30.665,148.404 30.947,147.982 31.143 C 147.559 31.339,147.128 31.500,147.023 31.500 C 146.919 31.500,146.833 31.572,146.833 31.659 C 146.833 31.747,146.571 31.867,146.251 31.927 C 145.931 31.987,145.705 32.094,145.749 32.165 C 145.816 32.274,145.046 32.513,144.726 32.482 C 144.668 32.476,144.575 32.534,144.519 32.611 C 144.338 32.857,140.852 34.500,140.509 34.500 C 140.412 34.500,140.333 34.575,140.333 34.667 C 140.333 34.758,140.189 34.833,140.012 34.833 C 139.835 34.833,139.578 34.946,139.440 35.083 C 139.303 35.221,139.094 35.333,138.977 35.333 C 138.859 35.333,138.085 35.659,137.256 36.058 C 134.071 37.590,133.537 37.833,133.355 37.833 C 133.251 37.833,133.167 37.902,133.167 37.987 C 133.167 38.071,132.942 38.190,132.667 38.250 C 132.392 38.310,132.167 38.429,132.167 38.513 C 132.167 38.598,132.073 38.669,131.958 38.672 C 131.844 38.675,131.450 38.823,131.083 39.000 C 130.717 39.177,130.323 39.325,130.208 39.328 C 130.094 39.331,130.000 39.402,130.000 39.487 C 130.000 39.571,129.775 39.690,129.500 39.750 C 129.225 39.810,129.000 39.923,129.000 40.000 C 129.000 40.142,128.034 40.427,127.779 40.361 C 127.704 40.341,127.689 40.402,127.747 40.496 C 127.806 40.590,127.736 40.667,127.593 40.667 C 127.449 40.667,127.052 40.817,126.710 41.000 C 126.368 41.183,125.993 41.333,125.877 41.333 C 125.762 41.333,125.667 41.402,125.667 41.487 C 125.667 41.571,125.442 41.690,125.167 41.750 C 124.892 41.810,124.667 41.925,124.667 42.006 C 124.667 42.086,124.404 42.201,124.083 42.261 C 123.763 42.321,123.500 42.429,123.500 42.500 C 123.500 42.636,122.685 42.911,122.446 42.857 C 122.370 42.839,122.356 42.902,122.414 42.996 C 122.472 43.090,122.421 43.169,122.302 43.172 C 122.182 43.175,121.783 43.323,121.417 43.500 C 121.050 43.677,120.656 43.825,120.542 43.828 C 120.427 43.831,120.333 43.908,120.333 44.000 C 120.333 44.092,120.252 44.167,120.154 44.167 C 120.055 44.167,119.428 44.429,118.761 44.750 C 118.094 45.071,117.462 45.333,117.358 45.333 C 117.253 45.333,117.167 45.402,117.167 45.487 C 117.167 45.571,116.942 45.690,116.667 45.750 C 116.392 45.810,116.167 45.923,116.167 46.000 C 116.167 46.077,115.942 46.190,115.667 46.250 C 115.392 46.310,115.167 46.429,115.167 46.513 C 115.167 46.598,115.084 46.667,114.984 46.667 C 114.883 46.667,114.564 46.771,114.275 46.899 C 113.670 47.166,113.312 47.288,113.102 47.298 C 113.021 47.302,112.908 47.368,112.852 47.444 C 112.718 47.628,111.267 48.333,111.023 48.333 C 110.919 48.333,110.833 48.402,110.833 48.487 C 110.833 48.571,110.608 48.690,110.333 48.750 C 110.058 48.810,109.833 48.923,109.833 49.000 C 109.833 49.077,109.608 49.190,109.333 49.250 C 109.058 49.310,108.833 49.429,108.833 49.513 C 108.833 49.598,108.773 49.648,108.700 49.625 C 108.556 49.580,106.805 50.346,106.667 50.514 C 106.621 50.570,106.377 50.666,106.125 50.728 C 105.873 50.789,105.667 50.913,105.667 51.003 C 105.667 51.093,105.560 51.167,105.430 51.167 C 105.182 51.167,104.144 51.670,103.998 51.862 C 103.952 51.923,103.708 52.025,103.457 52.088 C 103.205 52.151,103.000 52.264,103.000 52.338 C 103.000 52.413,102.775 52.523,102.500 52.583 C 102.225 52.644,102.000 52.762,102.000 52.847 C 102.000 52.931,101.906 53.003,101.792 53.006 C 101.677 53.009,101.283 53.156,100.917 53.333 C 100.550 53.510,100.156 53.658,100.042 53.661 C 99.927 53.664,99.833 53.742,99.833 53.833 C 99.833 53.925,99.740 54.003,99.625 54.006 C 99.510 54.009,99.117 54.156,98.750 54.333 C 98.383 54.510,97.990 54.658,97.875 54.661 C 97.760 54.664,97.667 54.742,97.667 54.833 C 97.667 54.925,97.573 55.003,97.458 55.006 C 97.344 55.009,96.950 55.156,96.583 55.333 C 96.217 55.510,95.823 55.658,95.708 55.661 C 95.594 55.664,95.500 55.734,95.500 55.815 C 95.500 55.897,95.299 56.014,95.054 56.076 C 94.808 56.137,94.136 56.408,93.561 56.677 C 92.985 56.946,92.398 57.167,92.257 57.167 C 92.116 57.167,92.000 57.236,92.000 57.320 C 92.000 57.404,91.759 57.527,91.464 57.591 C 91.169 57.656,90.813 57.772,90.672 57.849 C 90.062 58.182,88.830 58.667,88.592 58.667 C 88.450 58.667,88.333 58.735,88.333 58.819 C 88.333 58.902,88.033 59.021,87.667 59.083 C 87.300 59.145,87.000 59.263,87.000 59.346 C 87.000 59.429,86.700 59.544,86.333 59.603 C 85.967 59.661,85.667 59.775,85.667 59.855 C 85.667 59.935,85.537 60.000,85.378 60.000 C 85.106 60.000,83.588 60.535,82.966 60.850 C 82.809 60.929,82.378 61.042,82.007 61.102 C 81.637 61.161,81.333 61.275,81.333 61.355 C 81.333 61.435,81.233 61.500,81.111 61.500 C 80.863 61.500,78.765 62.113,78.250 62.337 C 78.067 62.416,77.598 62.529,77.209 62.588 C 76.820 62.647,76.464 62.757,76.417 62.832 C 76.337 62.962,74.722 63.263,74.458 63.198 C 74.390 63.181,74.333 63.234,74.333 63.317 C 74.333 63.400,73.868 63.521,73.298 63.587 C 72.729 63.653,72.148 63.772,72.007 63.851 C 71.754 63.992,70.533 64.177,67.583 64.520 C 65.917 64.714,61.328 64.594,61.179 64.353 C 61.126 64.269,60.727 64.146,60.292 64.081 C 59.856 64.016,59.500 63.902,59.500 63.828 C 59.500 63.754,59.275 63.644,59.000 63.583 C 58.725 63.523,58.500 63.410,58.500 63.331 C 58.500 63.253,58.336 63.137,58.135 63.073 C 56.944 62.695,55.584 60.476,55.466 58.720 C 55.447 58.428,55.371 58.226,55.299 58.271 C 55.226 58.316,55.167 57.903,55.167 57.353 C 55.167 56.803,55.233 56.312,55.314 56.262 C 55.395 56.212,55.513 55.683,55.577 55.086 C 55.641 54.489,55.756 54.000,55.832 54.000 C 55.908 54.000,56.021 53.700,56.083 53.333 C 56.145 52.967,56.258 52.667,56.335 52.667 C 56.411 52.667,56.523 52.442,56.583 52.167 C 56.644 51.892,56.757 51.667,56.835 51.667 C 56.914 51.667,57.025 51.516,57.084 51.333 C 57.142 51.149,57.560 50.618,58.014 50.152 L 58.838 49.306 60.627 49.228 C 61.611 49.186,62.567 49.085,62.750 49.003 C 62.933 48.922,63.438 48.809,63.871 48.752 C 64.304 48.694,64.697 48.585,64.744 48.509 C 64.791 48.433,65.093 48.322,65.415 48.261 C 65.737 48.201,66.000 48.088,66.000 48.011 C 66.000 47.933,66.189 47.822,66.420 47.764 C 67.108 47.591,69.000 45.850,69.000 45.389 C 69.000 45.267,69.057 45.167,69.128 45.167 C 69.375 45.167,69.863 43.442,69.954 42.247 C 70.050 40.977,69.938 40.167,69.665 40.167 C 69.414 40.167,68.833 39.617,68.833 39.380 C 68.833 39.262,68.760 39.167,68.670 39.167 C 68.580 39.167,68.459 38.979,68.402 38.750 C 68.344 38.521,68.235 38.333,68.159 38.333 C 68.083 38.333,67.969 37.992,67.907 37.574 C 67.809 36.923,67.742 36.823,67.438 36.866 C 67.018 36.926,66.802 39.644,67.180 40.100 C 67.344 40.297,67.127 40.333,65.770 40.333 C 64.888 40.333,64.167 40.398,64.167 40.476 C 64.167 40.555,63.702 40.668,63.134 40.727 C 62.567 40.786,62.060 40.898,62.009 40.975 C 61.958 41.052,61.692 41.170,61.418 41.238 C 61.144 41.305,60.882 41.410,60.835 41.472 C 60.788 41.533,60.459 41.732,60.104 41.913 C 58.856 42.549,57.185 44.416,56.436 46.012 C 56.159 46.602,56.116 47.667,56.369 47.667 C 56.767 47.667,56.350 48.305,55.149 49.534 C 53.849 50.864,52.500 52.624,52.500 52.991 C 52.500 53.088,52.425 53.167,52.333 53.167 C 52.242 53.167,52.167 53.249,52.167 53.350 C 52.167 53.451,52.063 53.769,51.937 54.058 C 51.129 55.906,51.083 56.172,51.083 59.048 C 51.083 60.938,51.144 61.884,51.271 61.964 C 51.374 62.030,51.511 62.327,51.576 62.625 C 51.640 62.923,51.756 63.167,51.833 63.167 C 51.910 63.167,52.023 63.392,52.083 63.667 C 52.144 63.942,52.257 64.167,52.335 64.167 C 52.414 64.167,52.525 64.317,52.583 64.500 C 52.705 64.883,54.278 66.508,55.254 67.260 C 56.504 68.222,60.552 70.000,61.491 70.000 C 61.668 70.000,61.857 70.070,61.909 70.155 C 61.962 70.240,62.435 70.356,62.961 70.413 C 63.487 70.470,64.039 70.582,64.188 70.663 C 64.336 70.744,65.199 70.863,66.104 70.927 C 67.009 70.991,67.825 71.100,67.917 71.170 C 68.468 71.590,86.116 71.421,86.252 70.995 C 86.311 70.808,86.522 70.482,86.721 70.270 C 86.920 70.058,87.247 69.666,87.447 69.400 C 87.955 68.724,89.436 67.224,90.475 66.333 C 90.955 65.921,91.573 65.377,91.847 65.125 C 92.121 64.873,92.406 64.667,92.480 64.667 C 92.599 64.667,92.853 64.481,93.618 63.836 C 93.729 63.743,93.892 63.667,93.981 63.667 C 94.070 63.667,94.245 63.573,94.370 63.458 C 94.709 63.148,95.194 62.845,95.708 62.624 C 95.960 62.516,96.167 62.374,96.167 62.310 C 96.167 62.246,96.392 62.144,96.667 62.083 C 96.942 62.023,97.167 61.910,97.167 61.833 C 97.167 61.756,97.392 61.644,97.667 61.583 C 97.942 61.523,98.167 61.410,98.167 61.333 C 98.167 61.256,98.392 61.144,98.667 61.083 C 98.942 61.023,99.167 60.911,99.167 60.835 C 99.167 60.758,99.467 60.645,99.833 60.583 C 100.200 60.521,100.500 60.411,100.500 60.337 C 100.500 60.264,100.763 60.155,101.083 60.094 C 101.404 60.034,101.667 59.913,101.667 59.826 C 101.667 59.738,101.835 59.666,102.042 59.666 C 102.248 59.665,102.626 59.555,102.882 59.422 C 103.138 59.288,103.607 59.130,103.924 59.071 C 104.241 59.012,104.500 58.903,104.500 58.829 C 104.500 58.756,104.800 58.645,105.167 58.583 C 105.533 58.521,105.833 58.411,105.833 58.337 C 105.833 58.264,106.093 58.155,106.410 58.096 C 106.727 58.036,107.195 57.878,107.451 57.745 C 107.707 57.611,108.048 57.502,108.208 57.501 C 108.369 57.500,108.500 57.425,108.500 57.333 C 108.500 57.242,108.654 57.167,108.842 57.167 C 109.031 57.167,109.500 57.025,109.884 56.852 C 110.269 56.678,110.996 56.397,111.500 56.227 C 112.004 56.056,112.454 55.871,112.500 55.816 C 112.546 55.760,112.865 55.663,113.208 55.600 C 113.552 55.537,113.833 55.413,113.833 55.326 C 113.833 55.238,113.965 55.166,114.125 55.166 C 114.285 55.165,114.618 55.060,114.864 54.931 C 115.110 54.803,115.541 54.648,115.822 54.586 C 116.103 54.524,116.333 54.404,116.333 54.320 C 116.333 54.236,116.433 54.167,116.554 54.167 C 116.777 54.167,119.027 53.227,119.927 52.757 C 120.196 52.617,120.510 52.502,120.625 52.501 C 120.740 52.500,120.833 52.425,120.833 52.333 C 120.833 52.242,120.940 52.167,121.071 52.167 C 121.202 52.167,121.427 52.049,121.571 51.905 C 121.822 51.655,121.923 51.764,121.853 52.208 C 121.842 52.277,121.911 52.333,122.006 52.333 C 122.119 52.333,122.124 52.435,122.022 52.625 C 121.936 52.785,121.813 53.273,121.748 53.708 C 121.682 54.144,121.570 54.500,121.499 54.500 C 121.428 54.500,121.321 54.706,121.262 54.958 C 121.132 55.515,120.660 56.497,120.375 56.801 C 120.260 56.924,120.167 57.131,120.167 57.262 C 120.167 57.393,120.092 57.500,120.000 57.500 C 119.908 57.500,119.833 57.582,119.833 57.682 C 119.833 57.782,119.702 58.036,119.542 58.246 C 119.381 58.456,119.138 58.794,119.000 58.996 C 118.862 59.199,118.619 59.519,118.458 59.708 C 118.298 59.897,118.167 60.119,118.167 60.202 C 118.167 60.285,118.092 60.307,118.000 60.250 C 117.908 60.193,117.833 60.253,117.833 60.384 C 117.833 60.514,117.590 60.887,117.292 61.213 C 116.218 62.387,115.890 63.000,116.335 63.000 C 116.531 63.000,119.556 60.978,119.639 60.792 C 119.669 60.723,119.803 60.667,119.936 60.667 C 120.069 60.667,120.218 60.561,120.267 60.432 C 120.317 60.302,120.540 60.151,120.762 60.095 C 120.985 60.039,121.167 59.920,121.167 59.830 C 121.167 59.740,121.282 59.667,121.422 59.667 C 121.562 59.667,121.720 59.554,121.773 59.417 C 121.826 59.279,121.962 59.167,122.076 59.167 C 122.257 59.167,122.439 59.042,123.263 58.357 C 123.362 58.275,123.605 58.156,123.804 58.092 C 124.004 58.029,124.167 57.908,124.167 57.822 C 124.167 57.737,124.282 57.667,124.422 57.667 C 124.562 57.667,124.718 57.561,124.767 57.432 C 124.817 57.302,125.040 57.151,125.262 57.095 C 125.485 57.039,125.667 56.920,125.667 56.830 C 125.667 56.740,125.782 56.667,125.922 56.667 C 126.062 56.667,126.220 56.554,126.273 56.417 C 126.326 56.279,126.468 56.167,126.589 56.167 C 126.710 56.167,126.912 56.064,127.038 55.939 C 127.163 55.813,127.431 55.658,127.633 55.594 C 127.835 55.530,128.000 55.408,128.000 55.322 C 128.000 55.237,128.068 55.167,128.151 55.167 C 128.234 55.167,128.853 54.802,129.526 54.357 C 131.982 52.731,132.353 52.500,132.508 52.500 C 132.595 52.500,132.667 52.430,132.667 52.345 C 132.667 52.259,132.798 52.147,132.958 52.096 C 133.119 52.044,133.468 51.814,133.734 51.584 C 134.001 51.355,134.313 51.167,134.429 51.167 C 134.544 51.167,134.664 51.110,134.694 51.042 C 134.779 50.852,135.796 50.167,135.993 50.167 C 136.089 50.167,136.167 50.100,136.167 50.018 C 136.167 49.936,136.354 49.822,136.583 49.765 C 136.813 49.707,137.000 49.587,137.000 49.497 C 137.000 49.407,137.115 49.333,137.255 49.333 C 137.396 49.333,137.554 49.221,137.606 49.083 C 137.659 48.946,137.790 48.833,137.897 48.833 C 138.063 48.833,138.917 48.331,140.099 47.537 C 140.274 47.420,140.548 47.280,140.708 47.226 C 140.869 47.172,141.000 47.062,141.000 46.981 C 141.000 46.900,141.101 46.833,141.224 46.833 C 141.348 46.833,141.605 46.698,141.795 46.533 C 141.986 46.368,142.428 46.087,142.779 45.908 C 143.130 45.729,143.454 45.541,143.500 45.489 C 143.546 45.437,144.446 44.879,145.500 44.250 C 146.554 43.621,147.455 43.051,147.502 42.983 C 147.548 42.915,147.792 42.808,148.043 42.745 C 148.295 42.682,148.500 42.569,148.500 42.493 C 148.500 42.418,148.669 42.303,148.875 42.239 C 149.081 42.174,149.287 42.076,149.333 42.019 C 149.469 41.853,150.050 41.502,150.542 41.291 C 150.794 41.182,151.000 41.035,151.000 40.963 C 151.000 40.892,151.107 40.833,151.238 40.833 C 151.369 40.833,151.575 40.735,151.696 40.616 C 151.921 40.394,152.297 40.215,152.565 40.202 C 152.646 40.198,152.759 40.125,152.815 40.039 C 152.871 39.953,153.367 39.637,153.917 39.337 C 154.467 39.036,155.029 38.694,155.167 38.575 C 155.304 38.456,155.623 38.308,155.875 38.245 C 156.127 38.182,156.333 38.064,156.333 37.982 C 156.333 37.900,156.440 37.833,156.571 37.833 C 156.702 37.833,156.909 37.739,157.030 37.624 C 157.151 37.509,157.568 37.265,157.956 37.082 C 158.345 36.899,158.664 36.700,158.665 36.638 C 158.666 36.577,158.892 36.477,159.167 36.417 C 159.442 36.356,159.667 36.243,159.667 36.165 C 159.667 36.086,159.835 35.970,160.042 35.905 C 160.248 35.841,160.454 35.742,160.500 35.686 C 160.546 35.629,160.958 35.396,161.417 35.167 C 161.875 34.938,162.288 34.700,162.335 34.638 C 162.382 34.577,162.626 34.475,162.877 34.412 C 163.128 34.349,163.333 34.236,163.333 34.162 C 163.333 34.087,163.558 33.977,163.833 33.917 C 164.108 33.856,164.333 33.738,164.333 33.653 C 164.333 33.569,164.416 33.500,164.516 33.500 C 164.699 33.500,165.307 33.253,166.602 32.651 C 166.978 32.476,167.372 32.333,167.477 32.333 C 167.581 32.333,167.667 32.262,167.667 32.174 C 167.667 32.087,167.929 31.966,168.250 31.906 C 168.571 31.845,168.833 31.733,168.833 31.656 C 168.833 31.578,169.096 31.466,169.417 31.406 C 169.737 31.345,170.000 31.238,170.000 31.167 C 170.000 31.095,170.262 30.988,170.583 30.928 C 170.904 30.867,171.167 30.747,171.167 30.659 C 171.167 30.572,171.335 30.500,171.542 30.499 C 171.748 30.498,172.118 30.393,172.364 30.265 C 172.610 30.136,173.060 29.978,173.364 29.913 C 173.668 29.848,173.992 29.736,174.083 29.663 C 174.175 29.591,174.625 29.476,175.083 29.409 C 175.542 29.342,175.957 29.224,176.007 29.148 C 176.470 28.436,193.859 28.450,194.750 29.163 C 194.842 29.236,195.310 29.349,195.792 29.414 C 196.273 29.478,196.667 29.593,196.667 29.669 C 196.667 29.745,196.890 29.856,197.162 29.916 C 197.435 29.975,197.940 30.162,198.286 30.330 C 198.632 30.498,198.971 30.601,199.041 30.558 C 199.110 30.515,199.167 30.551,199.167 30.637 C 199.167 30.774,199.434 30.897,199.881 30.968 C 199.953 30.979,200.127 31.103,200.268 31.244 C 200.409 31.385,200.631 31.500,200.762 31.500 C 200.893 31.500,201.000 31.574,201.000 31.663 C 201.000 31.753,201.188 31.874,201.417 31.932 C 201.646 31.989,201.833 32.098,201.833 32.174 C 201.833 32.249,201.996 32.363,202.196 32.426 C 202.395 32.489,202.661 32.625,202.787 32.729 C 204.001 33.724,204.153 34.237,203.292 34.424 C 202.994 34.489,202.713 34.600,202.667 34.670 C 202.621 34.741,200.858 34.854,198.750 34.921 C 194.806 35.048,194.755 35.051,194.333 35.211 C 194.196 35.264,193.296 35.355,192.333 35.413 C 191.371 35.472,190.512 35.590,190.425 35.676 C 190.338 35.763,190.103 35.833,189.902 35.833 C 189.298 35.833,187.833 36.369,187.833 36.591 C 187.833 36.998,188.210 37.065,191.542 37.249 C 192.710 37.314,193.667 37.425,193.667 37.495 C 193.667 37.566,194.265 37.676,194.997 37.740 C 195.729 37.804,196.365 37.917,196.411 37.992 C 196.458 38.066,196.983 38.180,197.579 38.243 C 198.175 38.307,198.703 38.423,198.751 38.501 C 198.799 38.579,199.251 38.695,199.755 38.758 C 200.259 38.821,200.709 38.934,200.756 39.010 C 200.803 39.086,201.177 39.198,201.587 39.259 C 201.998 39.321,202.333 39.429,202.333 39.500 C 202.333 39.571,202.669 39.679,203.079 39.741 C 203.490 39.802,203.864 39.915,203.911 39.991 C 203.958 40.067,204.269 40.180,204.602 40.243 C 204.935 40.305,205.330 40.423,205.479 40.506 C 205.919 40.748,207.186 41.274,208.125 41.604 C 208.606 41.773,209.000 41.963,209.000 42.026 C 209.000 42.089,209.225 42.190,209.500 42.250 C 209.775 42.310,210.000 42.423,210.000 42.500 C 210.000 42.577,210.225 42.690,210.500 42.750 C 210.775 42.810,211.000 42.923,211.000 43.000 C 211.000 43.077,211.225 43.190,211.500 43.250 C 211.775 43.310,212.000 43.420,212.000 43.494 C 212.000 43.611,212.482 43.803,212.777 43.804 C 212.833 43.805,212.925 43.871,212.981 43.953 C 213.037 44.034,213.383 44.281,213.750 44.500 C 214.117 44.719,214.454 44.941,214.500 44.991 C 214.546 45.042,214.921 45.265,215.333 45.488 C 215.746 45.710,216.121 45.936,216.167 45.990 C 216.213 46.044,216.681 46.381,217.208 46.738 C 217.735 47.096,218.167 47.446,218.167 47.516 C 218.167 47.587,218.298 47.687,218.458 47.740 C 218.619 47.793,219.004 48.061,219.314 48.335 C 219.625 48.609,219.944 48.833,220.023 48.833 C 220.227 48.833,226.000 54.617,226.000 54.821 C 226.000 54.913,226.206 55.205,226.458 55.470 C 226.710 55.734,227.029 56.121,227.167 56.329 C 227.304 56.537,227.496 56.792,227.593 56.895 C 227.689 56.999,227.818 57.215,227.879 57.375 C 227.940 57.535,228.067 57.667,228.161 57.667 C 228.256 57.667,228.333 57.750,228.333 57.851 C 228.333 57.952,228.558 58.319,228.833 58.667 C 229.108 59.014,229.333 59.337,229.333 59.384 C 229.333 59.432,229.598 59.871,229.921 60.360 C 230.245 60.850,230.634 61.531,230.787 61.875 C 230.939 62.219,231.119 62.500,231.185 62.500 C 231.252 62.500,231.356 62.725,231.417 63.000 C 231.477 63.275,231.590 63.500,231.667 63.500 C 231.744 63.500,231.856 63.725,231.917 64.000 C 231.977 64.275,232.090 64.500,232.167 64.500 C 232.244 64.500,232.356 64.725,232.417 65.000 C 232.477 65.275,232.596 65.500,232.680 65.500 C 232.764 65.500,232.836 65.631,232.839 65.792 C 232.842 65.952,232.954 66.229,233.089 66.407 C 233.223 66.585,233.333 66.870,233.333 67.042 C 233.333 67.213,233.402 67.311,233.485 67.259 C 233.569 67.207,233.688 67.466,233.750 67.833 C 233.812 68.200,233.931 68.500,234.015 68.500 C 234.098 68.500,234.167 68.631,234.168 68.792 C 234.168 68.952,234.278 69.293,234.411 69.549 C 234.545 69.805,234.703 70.274,234.763 70.592 C 234.822 70.910,234.938 71.211,235.019 71.262 C 235.100 71.312,235.167 71.599,235.167 71.899 L 235.167 72.444 237.891 72.430 C 239.693 72.421,240.694 72.481,240.849 72.606 C 240.978 72.710,241.327 72.847,241.625 72.911 C 241.923 72.974,242.167 73.087,242.167 73.162 C 242.167 73.236,242.361 73.346,242.598 73.405 C 242.835 73.465,243.140 73.604,243.276 73.715 C 243.941 74.256,245.750 76.034,245.750 76.146 C 245.750 76.216,245.874 76.398,246.026 76.550 C 246.178 76.702,246.402 77.053,246.525 77.330 C 246.648 77.607,246.799 77.833,246.861 77.833 C 246.923 77.833,247.023 78.058,247.083 78.333 C 247.144 78.608,247.253 78.833,247.327 78.833 C 247.508 78.833,247.656 79.654,247.493 79.754 C 247.376 79.826,245.368 78.894,245.167 78.674 C 245.121 78.624,244.708 78.396,244.250 78.167 C 243.792 77.938,243.342 77.667,243.250 77.566 C 242.694 76.951,240.975 76.670,240.368 77.094 C 239.935 77.398,236.210 77.458,235.673 77.170 C 235.502 77.079,234.719 76.955,233.932 76.894 L 232.500 76.784 232.500 77.331 C 232.500 77.889,232.992 78.500,233.442 78.500 C 233.566 78.500,233.667 78.575,233.667 78.667 C 233.667 78.758,233.778 78.833,233.914 78.833 C 234.339 78.833,235.333 79.932,235.333 80.403 C 235.333 80.640,235.408 80.833,235.500 80.833 C 235.598 80.833,235.667 81.417,235.667 82.250 C 235.667 83.029,235.602 83.667,235.523 83.667 C 235.444 83.667,235.339 84.119,235.288 84.673 C 235.238 85.226,235.119 85.774,235.023 85.889 C 234.927 86.005,234.798 86.414,234.736 86.797 C 234.675 87.180,234.568 87.459,234.498 87.415 C 234.428 87.372,234.320 87.673,234.258 88.085 C 234.197 88.497,234.076 88.833,233.990 88.833 C 233.904 88.833,233.833 88.916,233.833 89.016 C 233.833 89.117,233.729 89.436,233.601 89.725 C 233.237 90.550,233.112 90.907,233.140 91.042 C 233.155 91.110,233.108 91.167,233.037 91.167 C 232.966 91.167,232.760 91.503,232.579 91.915 C 232.398 92.327,232.200 92.664,232.138 92.665 C 232.077 92.666,231.977 92.892,231.917 93.167 C 231.856 93.442,231.738 93.667,231.653 93.667 C 231.569 93.667,231.500 93.774,231.500 93.905 C 231.500 94.036,231.406 94.243,231.292 94.366 C 231.177 94.489,230.897 94.944,230.670 95.378 C 230.443 95.812,230.199 96.167,230.128 96.167 C 230.058 96.167,230.000 96.266,230.000 96.387 C 230.000 96.724,228.534 98.753,227.558 99.766 C 227.270 100.066,227.062 100.340,227.097 100.375 C 227.132 100.410,226.861 100.771,226.495 101.177 C 225.764 101.989,225.801 101.941,225.071 103.004 C 224.153 104.339,223.333 105.787,223.333 106.073 C 223.333 106.227,223.267 106.312,223.185 106.262 C 223.104 106.211,222.987 106.507,222.925 106.918 C 222.863 107.330,222.743 107.667,222.656 107.667 C 222.570 107.667,222.500 107.889,222.500 108.160 L 222.500 108.653 219.250 108.702 C 216.404 108.744,216.000 108.718,216.000 108.492 C 216.000 108.350,215.906 108.140,215.792 108.025 C 215.531 107.765,215.493 102.720,215.750 102.536 C 215.842 102.470,216.061 102.134,216.237 101.788 C 216.561 101.150,217.398 100.500,217.895 100.500 C 218.044 100.500,218.167 100.425,218.167 100.333 C 218.167 100.242,218.354 100.167,218.583 100.167 C 218.935 100.167,219.000 100.089,219.000 99.667 C 219.000 99.392,218.933 99.167,218.852 99.167 C 218.770 99.167,218.655 98.904,218.594 98.583 C 218.491 98.031,218.449 98.000,217.814 98.000 C 217.192 98.000,216.667 97.717,216.667 97.382 C 216.667 97.305,216.458 97.055,216.203 96.829 C 215.947 96.602,215.566 96.135,215.356 95.792 C 215.145 95.448,214.904 95.167,214.820 95.167 C 214.736 95.167,214.667 95.066,214.667 94.942 C 214.667 94.744,214.514 94.519,213.836 93.715 C 213.743 93.605,213.667 93.441,213.667 93.352 C 213.667 93.263,213.573 93.088,213.458 92.963 C 213.148 92.624,212.845 92.139,212.624 91.625 C 212.516 91.373,212.374 91.167,212.310 91.167 C 212.246 91.167,212.144 90.942,212.083 90.667 C 212.023 90.392,211.910 90.167,211.833 90.167 C 211.756 90.167,211.644 89.942,211.583 89.667 C 211.523 89.392,211.420 89.167,211.356 89.167 C 211.291 89.167,211.056 88.623,210.833 87.958 C 210.611 87.294,210.379 86.675,210.319 86.583 C 210.259 86.492,210.158 86.126,210.094 85.771 C 210.030 85.416,209.909 85.004,209.825 84.854 C 209.447 84.183,209.038 79.487,209.309 78.931 C 209.402 78.740,209.527 78.077,209.586 77.458 C 209.645 76.840,209.753 76.333,209.825 76.333 C 209.898 76.333,210.006 76.030,210.065 75.659 C 210.124 75.289,210.244 74.857,210.330 74.701 C 210.417 74.545,210.681 74.004,210.918 73.500 C 211.440 72.386,211.735 71.865,211.981 71.619 C 212.083 71.517,212.167 71.298,212.167 71.133 C 212.167 70.648,211.626 70.783,210.953 71.436 C 210.612 71.767,210.333 71.988,210.333 71.928 C 210.333 71.867,209.808 72.349,209.167 73.000 C 208.525 73.651,208.000 74.223,208.000 74.271 C 208.000 74.319,207.775 74.584,207.500 74.859 C 207.225 75.134,207.000 75.424,207.000 75.504 C 207.000 75.584,206.827 75.837,206.615 76.065 C 206.403 76.294,206.084 76.767,205.906 77.115 C 205.729 77.464,205.527 77.775,205.458 77.806 C 205.390 77.836,205.331 77.949,205.328 78.056 C 205.325 78.162,205.177 78.550,205.000 78.917 C 204.823 79.283,204.675 79.752,204.672 79.958 C 204.667 80.291,204.582 80.333,203.917 80.333 C 203.504 80.333,203.167 80.258,203.167 80.167 C 203.167 80.075,203.062 80.000,202.935 80.000 C 202.808 80.000,202.284 79.587,201.771 79.082 C 200.903 78.228,199.363 77.333,198.761 77.333 C 198.617 77.333,198.500 77.265,198.500 77.182 C 198.500 77.099,198.125 76.980,197.667 76.917 C 197.209 76.854,196.795 76.739,196.748 76.663 C 196.700 76.586,196.249 76.472,195.745 76.409 C 195.241 76.346,194.792 76.234,194.746 76.160 C 194.700 76.087,194.175 75.974,193.579 75.910 C 192.983 75.846,192.459 75.736,192.415 75.664 C 192.371 75.593,191.716 75.481,190.959 75.415 C 190.203 75.349,189.508 75.248,189.417 75.189 C 189.325 75.131,188.350 74.988,187.250 74.872 C 181.155 74.228,175.639 74.151,175.532 74.708 C 175.487 74.941,175.593 75.000,176.061 75.000 C 176.383 75.000,176.688 75.066,176.738 75.147 C 176.788 75.228,177.241 75.346,177.745 75.409 C 178.249 75.472,178.698 75.583,178.744 75.656 C 178.789 75.730,179.199 75.839,179.656 75.900 C 180.113 75.960,180.527 76.075,180.577 76.156 C 180.626 76.236,181.042 76.354,181.500 76.417 C 181.958 76.480,182.333 76.595,182.333 76.672 C 182.333 76.750,182.671 76.864,183.083 76.925 C 183.496 76.987,183.833 77.096,183.833 77.167 C 183.833 77.238,184.171 77.346,184.583 77.408 C 184.996 77.470,185.333 77.586,185.333 77.667 C 185.333 77.747,185.671 77.864,186.083 77.925 C 186.496 77.987,186.833 78.101,186.833 78.178 C 186.833 78.255,187.096 78.367,187.417 78.428 C 187.737 78.488,188.000 78.604,188.000 78.685 C 188.000 78.767,188.131 78.836,188.292 78.839 C 188.452 78.842,188.883 78.990,189.250 79.167 C 189.617 79.344,190.010 79.491,190.125 79.494 C 190.240 79.497,190.333 79.569,190.333 79.653 C 190.333 79.738,190.558 79.856,190.833 79.917 C 191.108 79.977,191.333 80.090,191.333 80.167 C 191.333 80.244,191.558 80.356,191.833 80.417 C 192.108 80.477,192.333 80.590,192.333 80.667 C 192.333 80.744,192.558 80.856,192.833 80.917 C 193.108 80.977,193.333 81.096,193.333 81.180 C 193.333 81.264,193.446 81.333,193.583 81.333 C 193.721 81.333,193.833 81.407,193.833 81.497 C 193.833 81.587,194.021 81.707,194.250 81.765 C 194.479 81.822,194.667 81.936,194.667 82.018 C 194.667 82.100,194.747 82.167,194.845 82.167 C 195.030 82.167,196.311 83.006,196.696 83.380 C 196.817 83.498,197.169 83.772,197.477 83.989 C 198.952 85.026,201.667 88.275,201.667 89.003 C 201.667 89.102,202.493 89.167,203.750 89.167 C 205.722 89.167,205.833 89.184,205.833 89.500 C 205.833 89.683,205.908 89.833,206.000 89.833 C 206.092 89.833,206.167 90.002,206.168 90.208 C 206.168 90.415,206.281 90.798,206.418 91.061 C 206.555 91.323,206.667 91.680,206.667 91.852 C 206.667 92.025,206.733 92.167,206.815 92.167 C 206.896 92.167,207.014 92.438,207.076 92.771 C 207.138 93.103,207.257 93.496,207.339 93.646 C 207.623 94.161,208.167 95.482,208.167 95.658 C 208.167 95.754,208.242 95.833,208.333 95.833 C 208.425 95.833,208.500 95.973,208.500 96.144 C 208.500 96.315,208.650 96.646,208.833 96.879 C 209.017 97.112,209.167 97.358,209.167 97.426 C 209.167 97.494,209.617 97.995,210.167 98.540 C 210.717 99.085,211.167 99.630,211.167 99.751 C 211.167 99.873,211.246 99.999,211.343 100.031 C 211.457 100.069,211.428 100.266,211.261 100.587 C 211.119 100.860,211.002 101.174,211.001 101.285 C 211.000 101.396,210.695 101.569,210.321 101.670 L 209.643 101.853 209.727 103.218 C 209.898 105.967,210.181 108.572,210.318 108.660 C 210.396 108.710,210.513 109.144,210.579 109.625 C 210.644 110.106,210.766 110.542,210.849 110.593 C 210.932 110.644,211.003 110.813,211.006 110.968 C 211.009 111.123,211.156 111.550,211.333 111.917 C 211.510 112.283,211.658 112.677,211.661 112.792 C 211.664 112.906,211.724 113.000,211.794 113.000 C 211.864 113.000,211.995 113.169,212.085 113.375 L 212.250 113.750 218.777 113.794 L 225.305 113.837 225.422 112.544 C 225.487 111.832,225.596 111.175,225.665 111.083 C 225.734 110.992,225.840 110.639,225.901 110.299 C 225.962 109.959,226.122 109.471,226.255 109.215 C 226.389 108.959,226.498 108.619,226.499 108.458 C 226.500 108.298,226.559 108.167,226.630 108.167 C 226.702 108.167,226.849 107.960,226.957 107.708 C 227.179 107.194,227.481 106.709,227.792 106.370 C 227.906 106.245,228.000 106.036,228.000 105.905 C 228.000 105.774,228.068 105.667,228.150 105.667 C 228.233 105.667,228.439 105.452,228.609 105.189 C 229.139 104.368,229.859 103.544,231.667 101.694 C 232.629 100.709,233.717 99.540,234.083 99.097 C 234.450 98.654,234.825 98.207,234.918 98.104 C 235.010 98.001,235.385 97.467,235.751 96.917 C 236.117 96.367,236.467 95.878,236.528 95.832 C 236.590 95.785,236.692 95.541,236.755 95.290 C 236.818 95.039,236.930 94.833,237.005 94.833 C 237.079 94.833,237.191 94.600,237.254 94.315 C 237.530 93.060,238.383 92.814,239.118 93.776 C 239.937 94.850,241.053 95.833,241.451 95.833 C 241.569 95.833,241.667 95.908,241.667 96.000 C 241.667 96.092,241.779 96.167,241.917 96.167 C 242.054 96.167,242.167 96.242,242.167 96.333 C 242.167 96.425,242.252 96.500,242.357 96.500 C 242.600 96.500,244.051 97.205,244.185 97.389 C 244.241 97.466,244.335 97.524,244.393 97.518 C 244.697 97.489,245.500 97.727,245.500 97.847 C 245.500 97.923,245.762 98.034,246.083 98.094 C 246.404 98.155,246.667 98.261,246.667 98.331 C 246.667 98.400,246.967 98.505,247.333 98.564 C 247.700 98.623,248.000 98.745,248.000 98.835 C 248.000 99.057,248.785 99.046,248.924 98.822 C 248.984 98.724,248.689 98.125,248.267 97.491 C 247.845 96.856,247.500 96.261,247.500 96.169 C 247.500 96.076,247.441 96.000,247.369 96.000 C 247.297 96.000,247.097 95.756,246.923 95.458 C 246.750 95.160,246.564 94.879,246.509 94.833 C 246.455 94.787,246.318 94.563,246.206 94.333 C 245.956 93.822,245.618 93.278,245.481 93.167 C 245.424 93.121,245.326 92.915,245.261 92.708 C 245.197 92.502,245.091 92.333,245.027 92.333 C 244.962 92.333,244.724 91.977,244.497 91.542 C 244.269 91.106,244.037 90.712,243.981 90.667 C 243.924 90.621,243.826 90.415,243.761 90.208 C 243.697 90.002,243.582 89.833,243.507 89.833 C 243.431 89.833,243.318 89.628,243.255 89.377 C 243.192 89.126,243.090 88.882,243.028 88.835 C 242.863 88.710,242.167 87.245,242.167 87.023 C 242.167 86.919,242.096 86.833,242.010 86.833 C 241.924 86.833,241.802 86.477,241.739 86.042 C 241.676 85.606,241.559 85.167,241.479 85.066 C 241.388 84.951,241.489 84.714,241.750 84.433 C 241.979 84.185,242.167 83.853,242.167 83.695 C 242.167 83.371,242.722 82.833,243.058 82.833 C 243.266 82.833,244.515 84.093,244.414 84.200 C 244.388 84.228,244.472 84.347,244.600 84.465 C 244.728 84.583,244.833 84.641,244.833 84.593 C 244.833 84.545,245.190 84.848,245.625 85.266 C 246.060 85.684,246.627 86.189,246.884 86.388 C 247.141 86.587,247.516 86.890,247.718 87.061 C 247.919 87.232,248.271 87.494,248.500 87.643 C 248.961 87.943,249.069 88.024,249.651 88.503 C 249.871 88.685,250.152 88.833,250.276 88.833 C 250.399 88.833,250.500 88.891,250.500 88.960 C 250.500 89.105,250.603 89.163,252.518 90.101 C 254.644 91.142,255.104 91.333,255.474 91.333 C 255.661 91.333,255.860 91.408,255.917 91.500 C 256.088 91.778,257.000 91.702,257.000 91.411 C 257.000 91.162,256.542 90.336,256.309 90.165 C 256.245 90.118,256.142 89.874,256.078 89.623 C 256.015 89.372,255.897 89.167,255.815 89.167 C 255.734 89.167,255.667 89.060,255.667 88.929 C 255.667 88.798,255.564 88.588,255.439 88.462 C 255.313 88.337,255.153 88.050,255.083 87.826 C 255.013 87.601,254.906 87.379,254.846 87.333 C 254.672 87.201,251.996 81.771,251.998 81.556 C 251.999 81.449,251.944 81.336,251.875 81.306 C 251.702 81.229,251.000 79.476,251.000 79.122 C 251.000 78.963,250.925 78.833,250.833 78.833 C 250.742 78.833,250.667 78.695,250.667 78.526 C 250.667 78.138,249.508 75.833,249.312 75.833 C 249.232 75.833,249.167 75.750,249.167 75.648 C 249.167 75.279,244.689 70.500,244.344 70.500 C 244.279 70.500,243.975 70.275,243.667 70.000 C 243.359 69.725,243.053 69.500,242.989 69.500 C 242.924 69.500,242.819 69.228,242.757 68.896 C 242.695 68.564,242.577 68.170,242.494 68.021 C 242.412 67.872,242.188 67.375,241.997 66.917 C 241.805 66.458,241.582 65.933,241.500 65.750 C 240.875 64.348,240.667 63.828,240.667 63.676 C 240.667 63.579,240.600 63.500,240.518 63.500 C 240.436 63.500,240.318 63.295,240.255 63.043 C 240.192 62.792,240.089 62.548,240.026 62.502 C 239.963 62.455,239.708 62.004,239.458 61.500 C 239.208 60.996,238.779 60.208,238.504 59.750 C 238.229 59.292,237.911 58.729,237.797 58.500 C 237.683 58.271,237.551 58.046,237.503 58.000 C 237.377 57.879,237.015 57.290,236.889 57.000 C 236.651 56.456,233.610 52.000,233.476 52.000 C 233.398 52.000,233.333 51.922,233.333 51.826 C 233.333 51.731,233.257 51.562,233.164 51.451 C 232.775 50.991,232.402 50.509,232.167 50.166 C 231.851 49.705,230.324 47.778,230.186 47.667 C 230.130 47.621,229.785 47.208,229.420 46.750 C 228.598 45.717,227.112 44.058,225.145 41.978 C 224.904 41.723,224.748 41.474,224.798 41.424 C 224.848 41.374,224.810 41.333,224.715 41.333 C 224.619 41.333,224.054 40.865,223.460 40.292 C 222.866 39.719,221.725 38.650,220.925 37.917 C 220.125 37.183,219.086 36.227,218.616 35.792 C 218.145 35.356,217.713 35.000,217.655 35.000 C 217.596 35.000,217.363 34.831,217.136 34.625 C 216.333 33.896,215.117 32.916,214.935 32.850 C 214.833 32.813,214.713 32.729,214.667 32.662 C 214.564 32.512,213.023 31.333,212.929 31.333 C 212.859 31.333,212.191 30.791,211.666 30.308 C 211.501 30.157,211.209 29.983,211.016 29.922 C 210.824 29.861,210.667 29.741,210.667 29.655 C 210.667 29.570,210.589 29.500,210.493 29.500 C 210.338 29.500,209.376 28.890,209.167 28.658 C 209.121 28.607,208.783 28.385,208.417 28.164 C 208.050 27.943,207.651 27.666,207.530 27.548 C 207.409 27.430,207.202 27.333,207.071 27.333 C 206.940 27.333,206.833 27.258,206.833 27.167 C 206.833 27.075,206.725 27.000,206.592 27.000 C 206.459 27.000,206.290 26.906,206.217 26.792 C 206.143 26.677,205.711 26.396,205.255 26.167 C 204.443 25.758,204.200 25.604,203.778 25.230 C 203.662 25.128,203.387 24.987,203.167 24.917 C 202.946 24.847,202.663 24.687,202.538 24.561 C 202.412 24.436,202.202 24.333,202.071 24.333 C 201.940 24.333,201.833 24.264,201.833 24.180 C 201.833 24.096,201.603 23.976,201.321 23.914 C 201.040 23.852,200.849 23.762,200.898 23.713 C 200.946 23.665,200.596 23.428,200.118 23.187 C 199.641 22.947,199.213 22.704,199.167 22.647 C 199.121 22.591,198.896 22.487,198.667 22.417 C 198.438 22.346,198.213 22.242,198.167 22.186 C 198.064 22.059,194.555 20.323,193.417 19.836 C 192.958 19.640,192.358 19.377,192.083 19.252 C 190.930 18.727,190.356 18.500,190.183 18.500 C 190.082 18.500,190.000 18.425,190.000 18.333 C 190.000 18.242,189.869 18.164,189.708 18.161 C 189.548 18.158,189.117 18.010,188.750 17.833 C 188.383 17.656,187.996 17.509,187.889 17.506 C 187.781 17.503,187.481 17.392,187.222 17.260 C 186.383 16.834,185.539 16.500,185.300 16.500 C 185.172 16.500,184.981 16.414,184.877 16.310 C 184.680 16.114,181.151 15.959,180.292 16.109 "
              stroke="none" fill="#fff" fill-rule="evenodd"></path>
    </g>
</svg>